<?xml version="1.0" standalone="yes"?>
<svg xmlns="http://www.w3.org/2000/svg" width="9883" height="3428">
<path style="fill:#ffffff; stroke:none;" d="M0 0L0 3428L9883 3428L9883 0L0 0z"/>
<path style="fill:#074c8e; stroke:none;" d="M4737 288.424C4707.41 292.311 4678.37 292.922 4649 299.884C4566.13 319.529 4489.34 364.785 4432.17 428C4317.09 555.246 4287.15 747.559 4364.37 902C4387.91 949.086 4419.44 991.992 4458 1027.91C4499.17 1066.26 4548.45 1095.76 4601 1115.57C4693.36 1150.41 4794.21 1141 4891 1141L5364 1141L6715 1141L7098 1141C7190.57 1141 7281.22 1146.48 7370 1115.66C7419.23 1098.56 7464.68 1069.99 7504 1036.13C7540.68 1004.55 7571.38 966.044 7595.28 924C7689.61 758.073 7658.23 540.216 7520 408.039C7462.11 352.682 7390.85 315.486 7313 297.651C7263.82 286.385 7213.1 288 7163 288L6971 288L6329 288L5259 288L4910 288L4796 288C4776.73 288 4756.1 285.915 4737 288.424z"/>
<path style="fill:#577aa3; stroke:none;" d="M6751 399L6751 400L6767 400L6751 399z"/>
<path style="fill:#ffffff; stroke:none;" d="M6646 484C6667.93 486.832 6688.92 488.006 6711 487.039C6720.25 486.635 6732.39 487.464 6741 483.57C6747.68 480.551 6753.41 473.902 6759 469.247C6771.33 458.968 6783.7 448.732 6796 438.411C6807.65 428.635 6829.14 416.546 6836 403C6809.28 402.449 6782.77 399.998 6756 400C6744.29 400.001 6728.24 398.916 6717.17 403.148C6709.56 406.057 6703.22 417.06 6697.95 423C6686.47 435.936 6675.07 448.949 6663.72 462C6657.76 468.854 6649.81 475.69 6646 484z"/>
<path style="fill:#577aa3; stroke:none;" d="M6781 399L6781 400L6798 400L6781 399M6735 400L6735 401L6741 401L6735 400M6808 400L6808 401L6815 401L6808 400M6725 401L6725 402L6729 402L6725 401M6821 401L6821 402L6825 402L6821 401M6717 402L6717 403L6720 403L6717 402M6829 402L6829 403L6833 403L6829 402M6836.33 403.667L6836.67 404.333L6836.33 403.667M6714 404L6715 405L6714 404M6713 405L6714 406L6713 405M6835 405L6836 406L6835 405M6712 406L6713 407L6712 406M6711 407L6712 408L6711 407M6832 407L6833 408L6832 407M6710 408L6711 409L6710 408M6831 408L6832 409L6831 408M6709 409L6710 410L6709 409M6830 409L6831 410L6830 409M6829 410L6830 411L6829 410M6707 412L6708 413L6707 412M6826 412L6827 413L6826 412M6706 413L6707 414L6706 413M6825 413L6826 414L6825 413M6705 414L6706 415L6705 414M6824 414L6825 415L6824 414M6704 415L6705 416L6704 415M6823 415L6824 416L6823 415M6703 416L6704 417L6703 416M6702 417L6703 418L6702 417M6820 417L6821 418L6820 417M6819 418L6820 419L6819 418M6818 419L6819 420L6818 419M6700 420L6701 421L6700 420M6817 420L6818 421L6817 420M6699 421L6700 422L6699 421M6698 422L6699 423L6698 422M6814 422L6815 423L6814 422M6697 423L6698 424L6697 423M6813 423L6814 424L6813 423M6696 424L6697 425L6696 424M6812 424L6813 425L6812 424M6695 425L6696 426L6695 425M6811 425L6812 426L6811 425M6808 427L6809 428L6808 427M6693 428L6694 429L6693 428M6807 428L6808 429L6807 428M6692 429L6693 430L6692 429M6806 429L6807 430L6806 429M6691 430L6692 431L6691 430M6805 430L6806 431L6805 430M6690 431L6691 432L6690 431M6689 432L6690 433L6689 432M6802 432L6803 433L6802 432M6688 433L6689 434L6688 433M6801 433L6802 434L6801 433M6800 434L6801 435L6800 434M6799 435L6800 436L6799 435M6686 436L6687 437L6686 436M6685 437L6686 438L6685 437M6684 438L6685 439L6684 438M6795 438L6796 439L6795 438M6683 439L6684 440L6683 439M6794 439L6795 440L6794 439M6682 440L6683 441L6682 440M6793 440L6794 441L6793 440M6681 441L6682 442L6681 441M6789 443L6790 444L6789 443M6788 444L6789 445L6788 444M6678 445L6679 446L6678 445M6787 445L6788 446L6787 445M6677 446L6678 447L6677 446M6786 446L6787 447L6786 446M6676 447L6677 448L6676 447M6675 448L6676 449L6675 448M6783 448L6784 449L6783 448M6674 449L6675 450L6674 449M6782 449L6783 450L6782 449M6781 450L6782 451L6781 450M6780 451L6781 452L6780 451M6671 453L6672 454L6671 453M6777 453L6778 454L6777 453M6670 454L6671 455L6670 454M6776 454L6777 455L6776 454M6669 455L6670 456L6669 455M6775 455L6776 456L6775 455M6668 456L6669 457L6668 456M6774 456L6775 457L6774 456M6667 457L6668 458L6667 457M6771 458L6772 459L6771 458M6770 459L6771 460L6770 459M6769 460L6770 461L6769 460M6664 461L6665 462L6664 461M6768 461L6769 462L6768 461M6663 462L6664 463L6663 462M6662 463L6663 464L6662 463M6765 463L6766 464L6765 463M6661 464L6662 465L6661 464M6764 464L6765 465L6764 464M6660 465L6661 466L6660 465M6763 465L6764 466L6763 465M6762 466L6763 467L6762 466M6759 468L6760 469L6759 468M6657 469L6658 470L6657 469M6758 469L6759 470L6758 469M6656 470L6657 471L6656 470M6757 470L6758 471L6757 470M6655 471L6656 472L6655 471M6756 471L6757 472L6756 471M6654 472L6655 473L6654 472z"/>
<path style="fill:#031c4c; stroke:none;" d="M5826 624L5775 624C5770.06 624 5759.81 622.053 5755.65 625.028C5751.24 628.185 5749.21 638.999 5747.72 644C5742.17 662.633 5739.97 680.853 5737.71 700C5726.58 794.398 5791.44 896.964 5878 933L5880 521L6135 522C6123.25 510.018 6105.88 502.921 6091 495.741C6030.8 466.692 5957.03 466.183 5895 489.576C5878.09 495.954 5862.34 504.284 5847 513.814C5841.67 517.124 5832.29 521.995 5829.03 527.465C5825.29 533.749 5830.81 548.788 5830.99 556C5831.55 579.222 5828.92 600.99 5826 624z"/>
<path style="fill:#577aa3; stroke:none;" d="M6653 473L6654 474L6653 473M6753 473L6754 474L6753 473M6752 474L6753 475L6752 474M6751 475L6752 476L6751 475M6750 476L6751 477L6750 476M6650 477L6651 478L6650 477M6649 478L6650 479L6649 478M6648 479L6649 480L6648 479M6746 479L6747 480L6746 479M6647 480L6648 481L6647 480M6745 480L6746 481L6745 480M6646 481L6647 482L6646 481M6744 481L6745 482L6744 481M6645 483L6646 484L6645 483M6647 484L6647 485L6650 485L6647 484M6738 484L6738 485L6741 485L6738 484M6653.67 485.333L6654.33 485.667L6653.67 485.333M6731 485L6731 486L6735 486L6731 485M6659 486L6659 487L6664 487L6659 486M6722 486L6722 487L6727 487L6722 486M6670 487L6670 488L6683 488L6670 487M6706 487L6706 488L6715 488L6706 487M5239 511L5239 512L5247 512L5239 511z"/>
<path style="fill:#ffffff; stroke:none;" d="M5247 511.424C5203.14 517.185 5163.68 525.171 5129 555.289C5050.32 623.623 5041.87 752.99 5065.63 848C5074.89 885.051 5092.1 921.243 5120 947.961C5167.88 993.824 5237.49 1004.27 5301 995.718C5399.26 982.479 5453.09 898.401 5464.16 806C5476.58 702.243 5455.36 580.069 5353 529.248C5336.69 521.149 5318.88 516.852 5301 513.92C5283.86 511.108 5264.31 509.151 5247 511.424z"/>
<path style="fill:#577aa3; stroke:none;" d="M5276 511L5276 512L5283 512L5276 511M5229 512L5229 513L5233 513L5229 512M5289 512L5289 513L5293 513L5289 512M4813 513L4813 514L4823 514L4813 513z"/>
<path style="fill:#ffffff; stroke:none;" d="M4773 518L4771 989L4972 989C4988.33 989 5004.62 990 5021 990C5025.1 990 5035.07 991.815 5038.01 988.396C5042.13 983.611 5041.49 971.061 5042.28 965C5045.72 938.507 5042.39 913.242 5039 887L4887 886L4889 519C4869.13 515.297 4847.22 512.156 4827 513.039C4808.95 513.828 4791.02 517.227 4773 518z"/>
<path style="fill:#577aa3; stroke:none;" d="M4837 513L4837 514L4847 514L4837 513M5222 513L5222 514L5225 514L5222 513M5298 513L5298 514L5301 514L5298 513M4800 514L4800 515L4806 515L4800 514M4854 514L4854 515L4859 515L4854 514M5216 514L5216 515L5219 515L5216 514M5304 514L5304 515L5307 515L5304 514M4791 515L4791 516L4796 516L4791 515M4864 515L4864 516L4868 516L4864 515M5210 515L5210 516L5213 516L5210 515M5310 515L5310 516L5313 516L5310 515M6310 515L6310 516L6322 516L6310 515z"/>
<path style="fill:#ffffff; stroke:none;" d="M6226 524C6226 639.591 6224 755.418 6224 871L6224 960C6224 967.003 6220.66 985.835 6225.03 991.397C6228.8 996.194 6246.17 995.63 6252 996.424C6281.64 1000.46 6309.62 995.32 6339 993L6341 617C6355.68 615.841 6369.88 614.97 6384 620.229C6433.4 638.626 6425.98 700.631 6402.95 737C6395.58 748.626 6386.95 759.644 6376 768.112C6372.45 770.859 6361.91 775.098 6361.71 780.093C6361.53 784.43 6365.33 790.084 6367 794L6381.15 827C6397.89 866.006 6414.72 904.979 6431.42 944L6446.85 980C6448.56 983.983 6450.12 991.025 6454.27 993.121C6462.8 997.415 6475.71 996.281 6485 997.17C6517.38 1000.26 6548.73 996.548 6581 994C6578.13 977.899 6565.56 960.616 6558.25 946L6506.75 843C6500.88 831.263 6494.62 819.742 6488.75 808C6486.66 803.812 6482.12 797.848 6481.96 793.089C6481.8 788.78 6488.21 785.347 6491 782.83C6499.29 775.343 6507.52 767.154 6513.96 758C6531.86 732.564 6540.61 702.891 6541.96 672C6542.68 655.669 6540.74 637.745 6536.29 622C6505.29 512.41 6369.12 509.621 6277 518.831C6260 520.531 6242.95 521.858 6226 524z"/>
<path style="fill:#577aa3; stroke:none;" d="M6355 515L6355 516L6364 516L6355 515M4783 516L4783 517L4787 517L4783 516M4872 516L4872 517L4876 517L4872 516M5206.67 516.333L5207.33 516.667L5206.67 516.333M5315.67 516.333L5316.33 516.667L5315.67 516.333M6295 516L6295 517L6302 517L6295 516M6371 516L6371 517L6378 517L6371 516M4775 517L4775 518L4779 518L4775 517M4879 517L4879 518L4883 518L4879 517M5202.67 517.333L5203.33 517.667L5202.67 517.333M5319.67 517.333L5320.33 517.667L5319.67 517.333M6284 517L6284 518L6289 518L6284 517M6382 517L6382 518L6386 518L6382 517M4772 518L4772 595L4773 595L4773 542L4772 518M4886 518L4886 519L4889 519L4886 518M5198.67 518.333L5199.33 518.667L5198.67 518.333M5323.67 518.333L5324.33 518.667L5323.67 518.333M6275 518L6275 519L6280 519L6275 518M6390 518L6390 519L6394 519L6390 518M5195 519L5196 520L5195 519M5327 519L5328 520L5327 519M5490 523L5491 523L5491 520L5534 520C5524.93 516.194 5509.84 518.996 5500 519C5495.63 519.002 5491.56 518.299 5490 523M6265 519L6265 520L6270 520L6265 519M6398 519L6398 520L6401 520L6398 519M5191.67 520.333L5192.33 520.667L5191.67 520.333M5330.67 520.333L5331.33 520.667L5330.67 520.333z"/>
<path style="fill:#ffffff; stroke:none;" d="M5491 520C5486.07 545.45 5482.88 571.141 5486.58 597C5487.36 602.476 5486.93 617.421 5491.59 620.972C5497.02 625.114 5514.26 622 5521 622C5547.36 622 5573.71 623 5600 623L5599 990C5628.21 995.442 5657.48 997.327 5687 994.166C5692.91 993.533 5710.06 994.127 5713.97 989.259C5717.68 984.643 5715 969.786 5715 964L5715 894C5715 803.638 5716 713.391 5716 623L5826 623C5828.79 587.749 5832.58 556.336 5826 521L5491 520z"/>
<path style="fill:#577aa3; stroke:none;" d="M5666 520L5666 521L5798 521C5787.5 516.593 5769.42 520 5758 520L5666 520M6255 520L6255 521L6260 521L6255 520M6404 520L6404 521L6407 521L6404 520M6670 520L6670 521L6682 521L6670 520z"/>
<path style="fill:#ffffff; stroke:none;" d="M6628 994C6657.48 997.745 6685.27 1001.35 6715 998.166C6721.05 997.518 6738.98 998.207 6742.97 993.258C6746.9 988.39 6744 972.142 6744 966L6744 890C6744 800.287 6745 710.725 6745 621L6745 552C6745 546.23 6747.68 531.336 6743.97 526.742C6740.63 522.602 6727.01 523.369 6722 522.718C6699.72 519.824 6677.32 519.937 6655 522.169C6649.83 522.686 6632.12 522.169 6629.6 527.317C6625.08 536.574 6629 556.671 6629 567L6629 667C6629 710.027 6628 753.041 6628 796L6628 994z"/>
<path style="fill:#577aa3; stroke:none;" d="M6691 520L6691 521L6702 521L6691 520M5188.67 521.333L5189.33 521.667L5188.67 521.333M5333.67 521.333L5334.33 521.667L5333.67 521.333M5826 521L5826 524L5827 524L5826 521M5880 521L5881 522L5880 521z"/>
<path style="fill:#ffffff; stroke:none;" d="M5879 993C5946.02 993 6013.05 994 6080 994L6135 994C6141.05 994 6152.11 996.146 6157.57 993.396C6162.04 991.142 6162.07 978.439 6162.73 974C6165.66 954.124 6165.9 933.906 6163.13 914C6162.46 909.167 6162.66 895.014 6157.69 892.604C6154.08 890.855 6147.93 892 6144 892L6111 892L5995 892L5995 799L6122 799C6126.8 773.513 6129.95 747.843 6126.27 722C6125.5 716.621 6125.9 701.526 6121.4 698.028C6115.35 693.329 6094.61 697 6087 697C6056.73 697 6026.35 696 5996 696L5996 624C6036 624 6076.08 624.807 6116 624.999C6125.67 625.046 6135.33 625 6145 625C6148.09 625 6153.73 626.041 6156.01 623.396C6160.31 618.407 6159.46 605.31 6160.28 599C6163.69 572.795 6160.3 547.974 6157 522L5953 522C5935.62 522 5918.39 521 5901 521C5896.29 521 5885.44 518.99 5881.6 522.028C5876.96 525.703 5880 545.339 5880 551L5880 638C5880 756.329 5879 874.621 5879 993z"/>
<path style="fill:#577aa3; stroke:none;" d="M5929 521L5929 522L6061 522C6050.5 517.593 6032.42 521 6021 521L5929 521M6245 521L6245 522L6250 522L6245 521M6410 521L6410 522L6413 522L6410 521M6658 521L6658 522L6663 522L6658 521M6710 521L6710 522L6715 522L6710 521M6980 521L6980 522L7009 522L6980 521M5185.67 522.333L5186.33 522.667L5185.67 522.333M5336 522L5337 523L5336 522M6235 522L6235 523L6240 523L6235 522M6415 522L6415 523L6418 523L6415 522M6648 522L6648 523L6653 523L6648 522M6720 522L6720 523L6724 523L6720 522M6964 522L6964 523L6971 523L6964 522z"/>
<path style="fill:#ffffff; stroke:none;" d="M6786 994C6814.95 996.289 6842.7 1002.88 6872 999.285C6879.08 998.415 6892.62 999.312 6898.49 994.987C6903.52 991.281 6904.58 977.785 6906.15 972C6912.08 950.103 6919.41 928.216 6924 906C6969.58 915.405 7010.62 917.781 7056 905L7080 996C7119.5 1003.44 7160.44 1003.35 7200 996C7197.97 982.208 7192.16 968.304 7188.03 955C7180.89 932.042 7174.16 908.959 7167.03 886C7145.21 815.795 7123.92 745.392 7102.72 675C7092.27 640.301 7081.78 605.607 7071.03 571C7067.16 558.565 7065.24 538.91 7057.72 528.318C7053.98 523.046 7037.04 524.437 7031 523.715C7007.27 520.877 6981.73 520.451 6958 523.576C6951.88 524.381 6940.49 522.963 6935.51 526.938C6928.57 532.476 6925.82 553.557 6923.28 562C6914.41 591.438 6904.86 620.77 6895.33 650C6858.04 764.391 6823.22 879.585 6786 994z"/>
<path style="fill:#577aa3; stroke:none;" d="M7017 522L7017 523L7023 523L7017 522M5183 523L5184 524L5183 523M5339 523L5340 524L5339 523M6157 523L6157 526L6158 526L6157 523M6226 523L6226 524L6230 524L6226 523M6420.67 523.333L6421.33 523.667L6420.67 523.333M6640 523L6640 524L6644 524L6640 523M6728 523L6728 524L6732 524L6728 523M6954 523L6954 524L6959 524L6954 523M7029 523L7029 524L7034 524L7029 523M5180 524L5181 525L5180 524M5342 524L5343 525L5342 524M6225 524L6225 581L6226 581L6226 542L6225 524M6424.67 524.333L6425.33 524.667L6424.67 524.333M6633 524L6633 525L6636 525L6633 524M6736 524L6736 525L6739 525L6736 524M6944 524L6944 525L6949 525L6944 524M7039 524L7039 525L7044 525L7039 524M5177.67 525.333L5178.33 525.667L5177.67 525.333M5344 525L5345 526L5344 525M5489 525L5489 528L5490 528L5489 525M6428.67 525.333L6429.33 525.667L6428.67 525.333M6629 525L6630 526L6629 525M6743.67 525.333L6744.33 525.667L6743.67 525.333M6935 525L6935 526L6939 526L6935 525M7048 525L7048 526L7053 526L7048 525M5175 526L5176 527L5175 526M5347 526L5348 527L5347 526M6432.67 526.333L6433.33 526.667L6432.67 526.333M6745 526L6745 635L6746 635L6746 559L6745 526M6934 526L6935 527L6934 526M7057 526L7058 527L7057 526M5173 527L5174 528L5173 527M5349 527L5350 528L5349 527M5827 527L5827 531L5828 531L5827 527M6435.67 527.333L6436.33 527.667L6435.67 527.333M5170.67 528.333L5171.33 528.667L5170.67 528.333M5351 528L5352 529L5351 528M6439 528L6440 529L6439 528M5168 529L5169 530L5168 529M5353 529L5354 530L5353 529M6158 529L6158 532L6159 532L6158 529M6442 529L6443 530L6442 529M6933 529L6934 530L6933 529M7058 529L7059 530L7058 529M5166 530L5167 531L5166 530M5355 530L5356 531L5355 530M6444.67 530.333L6445.33 530.667L6444.67 530.333M5164 531L5165 532L5164 531M5357 531L5358 532L5357 531M5488.33 531.667L5488.67 532.333L5488.33 531.667M6447.67 531.333L6448.33 531.667L6447.67 531.333M5162 532L5163 533L5162 532M5359 532L5360 533L5359 532M6450 532L6451 533L6450 532M6932 532L6933 533L6932 532M7059 532L7060 533L7059 532M5161 533L5162 534L5161 533M5361 533L5362 534L5361 533z"/>
<path style="fill:#074c8e; stroke:none;" d="M5828 533L5829 534L5828 533z"/>
<path style="fill:#577aa3; stroke:none;" d="M6452.67 533.333L6453.33 533.667L6452.67 533.333M5159 534L5160 535L5159 534M5363 534L5364 535L5363 534M5828 534L5828 537L5829 537L5828 534M6455 534L6456 535L6455 534M5157 535L5158 536L5157 535M5365 535L5366 536L5365 535M6159 535L6159 539L6160 539L6159 535M6457 535L6458 536L6457 535M6931 535L6932 536L6931 535M7060.33 535.667L7060.67 536.333L7060.33 535.667M5155 536L5156 537L5155 536M6459.67 536.333L6460.33 536.667L6459.67 536.333M5368 537L5369 538L5368 537M5487 537L5487 540L5488 540L5487 537M6462 537L6463 538L6462 537M5152 538L5153 539L5152 538M5370 538L5371 539L5370 538M6464 538L6465 539L6464 538M6930.33 538.667L6930.67 539.333L6930.33 538.667M7061.33 538.667L7061.67 539.333L7061.33 538.667M5150 539L5151 540L5150 539M5372 539L5373 540L5372 539M6466 539L6467 540L6466 539M5373 540L5374 541L5373 540M6468 540L6469 541L6468 540M5147 541L5148 542L5147 541M5375 541L5376 542L5375 541M5829 541L5829 545L5830 545L5829 541M6470 541L6471 542L6470 541M6929.33 541.667L6929.67 542.333L6929.33 541.667M5376 542L5377 543L5376 542M6472 542L6473 543L6472 542M7062 542L7063 543L7062 542M5144 543L5145 544L5144 543M5378 543L5379 544L5378 543M6160 543L6160 547L6161 547L6160 543M6473 543L6474 544L6473 543M5379 544L5380 545L5379 544M5486 544L5486 547L5487 547L5486 544z"/>
<path style="fill:#031c4c; stroke:none;" d="M6161 544L6160.28 603L6156.26 623.396L6145 625L6115 625L5996 625L5996 696L6123 696C6125.12 722.816 6130.3 747.883 6126.42 775C6125.63 780.527 6125.79 794.469 6121.4 798.307C6119.17 800.259 6114.7 799.035 6112 799.004C6104.34 798.916 6096.66 799 6089 799L5996 799L5995 891C6034.03 891 6073.03 892 6112 892C6123.62 892 6146.99 896.443 6157 890.258C6163.34 886.34 6168.25 879.469 6173.17 874C6187.04 858.591 6198.96 841.571 6208.25 823C6214.11 811.276 6221.49 798.081 6223.67 785C6227.11 764.4 6223.9 740.895 6224 720C6224.11 696.582 6228.14 671.322 6224.7 648C6222.96 636.213 6216.53 623.563 6211.25 613C6199.16 588.827 6183.64 559.947 6161 544z"/>
<path style="fill:#577aa3; stroke:none;" d="M6475 544L6476 545L6475 544M6928.33 544.667L6928.67 545.333L6928.33 544.667M5141 545L5142 546L5141 545M5381 545L5382 546L5381 545M6477 545L6478 546L6477 545M7063.33 545.667L7063.67 546.333L7063.33 545.667M5140 546L5141 547L5140 546M5382 546L5383 547L5382 546M5138 547L5139 548L5138 547M5383 547L5384 548L5383 547M6480 547L6481 548L6480 547M6927.33 547.667L6927.67 548.333L6927.33 547.667M5137 548L5138 549L5137 548M5385 548L5386 549L5385 548M6482 548L6483 549L6482 548M7064.33 548.667L7064.67 549.333L7064.33 548.667M5136 549L5137 550L5136 549M5386 549L5387 550L5386 549M6483 549L6484 550L6483 549M5134 550L5135 551L5134 550M5387 550L5388 551L5387 550M5830 550L5830 557L5831 557L5830 550M6485 550L6486 551L6485 550M5133 551L5134 552L5133 551M6486 551L6487 552L6486 551M6926 551L6927 552L6926 551M5132 552L5133 553L5132 552M5390 552L5391 553L5390 552M6161 552L6161 559L6162 559L6161 552M7065 552L7066 553L7065 552M5131 553L5132 554L5131 553M5391 553L5392 554L5391 553M5485 553L5485 558L5486 558L5485 553M6489 553L6490 554L6489 553M5392 554L5393 555L5392 554M6490 554L6491 555L6490 554M6925 554L6926 555L6925 554M5128 555L5129 556L5128 555M5393 555L5394 556L5393 555M7066 555L7067 556L7066 555M5127 556L5128 557L5127 556M5126 557L5127 558L5126 557M5396 557L5397 558L5396 557M6494 557L6495 558L6494 557M6924 557L6925 558L6924 557M5125 558L5126 559L5125 558M5397 558L5398 559L5397 558M6495 558L6496 559L6495 558M7067.33 558.667L7067.67 559.333L7067.33 558.667M5124 559L5125 560L5124 559M5398 559L5399 560L5398 559M6496 559L6497 560L6496 559M5123 560L5124 561L5123 560M5399 560L5400 561L5399 560M6497 560L6498 561L6497 560M6923.33 560.667L6923.67 561.333L6923.33 560.667M5122 561L5123 562L5122 561M5400 561L5401 562L5400 561M7068.33 561.667L7068.67 562.333L7068.33 561.667M5121 562L5122 563L5121 562M5401 562L5402 563L5401 562M5402 563L5403 564L5402 563M6922.33 563.667L6922.67 564.333L6922.33 563.667M5403 564L5404 565L5403 564M5404 565L5405 566L5404 565M7069 565L7070 566L7069 565M5405 566L5406 567L5405 566M6504 566L6505 567L6504 566M6921.33 566.667L6921.67 567.333L6921.33 566.667M5116 567L5117 568L5116 567M5406 567L5407 568L5406 567M5484 567L5484 574L5485 574L5484 567M5115 568L5116 569L5115 568M5407 568L5408 569L5407 568M7070.33 568.667L7070.67 569.333L7070.33 568.667M5114 569L5115 570L5114 569M5408 569L5409 570L5408 569M5831 569L5831 574L5832 574L5831 569M6920.33 569.667L6920.67 570.333L6920.33 569.667M5113 570L5114 571L5113 570M5409 570L5410 571L5409 570M6507 570L6508 571L6507 570M5112 571L5113 572L5112 571M6508 571L6509 572L6508 571M7071.33 571.667L7071.67 572.333L7071.33 571.667M5111 572L5112 573L5111 572M6509 572L6510 573L6509 572M5110 573L5111 574L5110 573M6510 573L6511 574L6510 573M6919 573L6920 574L6919 573M5412 574L5413 575L5412 574z"/>
<path style="fill:#074c8e; stroke:none;" d="M5831 574L5832 575L5831 574z"/>
<path style="fill:#577aa3; stroke:none;" d="M6511 574L6512 575L6511 574M7072.33 574.667L7072.67 575.333L7072.33 574.667M5413 575L5414 576L5413 575M5414 576L5415 577L5414 576M6918 576L6919 577L6918 576M5107 577L5108 578L5107 577M5415 577L5416 578L5415 577M6513 577L6514 578L6513 577M5106 578L5107 579L5106 578M6514 578L6515 579L6514 578M7073 578L7074 579L7073 578M5105 579L5106 580L5105 579M6515 579L6516 580L6515 579M6917 579L6918 580L6917 579M5417 580L5418 581L5417 580M5418 581L5419 582L5418 581M7074.33 581.667L7074.67 582.333L7074.33 581.667M5103 582L5104 583L5103 582M5419 582L5420 583L5419 582M6517 582L6518 583L6517 582M6916.33 582.667L6916.67 583.333L6916.33 582.667M5102 583L5103 584L5102 583M5420 584L5421 585L5420 584M7075.33 584.667L7075.67 585.333L7075.33 584.667M5421 585L5422 586L5421 585M5485 585L5485 591L5486 591L5485 585M5830 585L5830 591L5831 591L5830 585M6161 585L6161 591L6162 591L6161 585M6519 585L6520 586L6519 585M6915.33 585.667L6915.67 586.333L6915.33 585.667M5100 586L5101 587L5100 586M6520 586L6521 587L6520 586M5423 588L5424 589L5423 588M6521 588L6522 589L6521 588M6914.33 588.667L6914.67 589.333L6914.33 588.667M7076 588L7077 589L7076 588M5098 589L5099 590L5098 589M5424 589L5425 590L5424 589M6522 589L6523 590L6522 589M5097 590L5098 591L5097 590M5425 591L5426 592L5425 591z"/>
<path style="fill:#074c8e; stroke:none;" d="M6161 591L6162 592L6161 591z"/>
<path style="fill:#577aa3; stroke:none;" d="M6523 591L6524 592L6523 591M6913.33 591.667L6913.67 592.333L6913.33 591.667M7077.33 591.667L7077.67 592.333L7077.33 591.667M5096 592L5097 593L5096 592M4888 593L4888 725L4889 725L4889 633C4889 621.58 4892.41 603.504 4888 593M6524 593L6525 594L6524 593M5427 594L5428 595L5427 594M6525 594L6526 595L6525 594M7078.33 594.667L7078.67 595.333L7078.33 594.667M5094 595L5095 596L5094 595M6912 595L6913 596L6912 595M5486 596L5486 600L5487 600L5486 596M5829 596L5829 600L5830 600L5829 596M6526 596L6527 597L6526 596M5429 597L5430 598L5429 597M6160 597L6160 601L6161 601L6160 597M7079.33 597.667L7079.67 598.333L7079.33 597.667M5092 598L5093 599L5092 598M6527 598L6528 599L6527 598M6911 598L6912 599L6911 598M5430 599L5431 600L5430 599M5091 600L5092 601L5091 600z"/>
<path style="fill:#074c8e; stroke:none;" d="M5829 600L5830 601L5829 600z"/>
<path style="fill:#577aa3; stroke:none;" d="M6528 600L6529 601L6528 600z"/>
<path style="fill:#074c8e; stroke:none;" d="M6160 601L6161 602L6160 601z"/>
<path style="fill:#577aa3; stroke:none;" d="M6910.33 601.667L6910.67 602.333L6910.33 601.667M7080 601L7081 602L7080 601M5432 602L5433 603L5432 602M6529 602L6530 603L6529 602M5089 603L5090 604L5089 603M5487 603L5487 607L5488 607L5487 603M5433 604L5434 605L5433 604M5828 604L5828 608L5829 608L5828 604M6909.33 604.667L6909.67 605.333L6909.33 604.667M7081.33 604.667L7081.67 605.333L7081.33 604.667M5088 605L5089 606L5088 605M6159 605L6159 609L6160 609L6159 605M6530 605L6531 606L6530 605M5434 606L5435 607L5434 606M5087 607L5088 608L5087 607M5435 607L5436 608L5435 607M6531 607L6532 608L6531 607M6908.33 607.667L6908.67 608.333L6908.33 607.667M7082.33 607.667L7082.67 608.333L7082.33 607.667z"/>
<path style="fill:#074c8e; stroke:none;" d="M5828 608L5829 609L5828 608z"/>
<path style="fill:#577aa3; stroke:none;" d="M5086 609L5087 610L5086 609M5436 609L5437 610L5436 609z"/>
<path style="fill:#074c8e; stroke:none;" d="M6159 609L6160 610L6159 609z"/>
<path style="fill:#577aa3; stroke:none;" d="M6532.33 609.667L6532.67 610.333L6532.33 609.667M5488 610L5488 613L5489 613L5488 610M6907.33 610.667L6907.67 611.333L6907.33 610.667M5085 611L5086 612L5085 611M5437 611L5438 612L5437 611M7083 611L7084 612L7083 611M5827 612L5827 615L5828 615L5827 612M6533 612L6534 613L6533 612M5084 613L5085 614L5084 613M5259 613L5259 614L5266 614L5259 613M5438 613L5439 614L5438 613M6158 613L6158 616L6159 616L6158 613M5249 614L5249 615L5252 615L5249 614z"/>
<path style="fill:#074c8e; stroke:none;" d="M5252 614.428C5218.83 619.179 5198.6 642.205 5188.33 673C5183.77 686.687 5181.47 700.735 5179.72 715C5178.45 725.343 5178.81 735.681 5177.83 746C5172.8 798.898 5182.22 886.286 5247 896.41C5255.75 897.776 5264.23 897.805 5273 896.714C5306.15 892.589 5324.97 866.84 5334.67 837C5345.24 804.496 5346.4 767.795 5344.09 734C5342.58 711.947 5340.79 690.052 5333.31 669C5320.7 633.53 5291.17 608.818 5252 614.428z"/>
<path style="fill:#577aa3; stroke:none;" d="M5273.67 614.333L5274.33 614.667L5273.67 614.333M5879 614L5879 746L5880 746L5880 654C5880 642.58 5883.41 624.504 5879 614M6906 614L6907 615L6906 614M7084.33 614.667L7084.67 615.333L7084.33 614.667M5083 615L5084 616L5083 615M5243 615L5243 616L5246 616L5243 615M5278 615L5278 616L5281 616L5278 615M5439 615L5440 616L5439 615M6534 615L6535 616L6534 615M5240 616L5241 617L5240 616M5283.67 616.333L5284.33 616.667L5283.67 616.333M5489 616L5489 619L5490 619L5489 616M6345 616L6345 617L6349 617L6345 616M6365 616L6365 617L6370 617L6365 616M5082 617L5083 618L5082 617M5236.67 617.333L5237.33 617.667L5236.67 617.333M5286.67 617.333L5287.33 617.667L5286.67 617.333M5440 617L5441 618L5440 617M6341 617L6342 618L6341 617M6373.67 617.333L6374.33 617.667L6373.67 617.333M6905 617L6906 618L6905 617M7085.33 617.667L7085.67 618.333L7085.33 617.667M5233.67 618.333L5234.33 618.667L5233.67 618.333M5289.67 618.333L5290.33 618.667L5289.67 618.333M5826 618L5826 621L5827 621L5826 618M6377.67 618.333L6378.33 618.667L6377.67 618.333M6535.33 618.667L6535.67 619.333L6535.33 618.667M5081 619L5082 620L5081 619M5231 619L5232 620L5231 619M5292 619L5293 620L5292 619M6157 619L6157 622L6158 622L6157 619M6381.67 619.333L6382.33 619.667L6381.67 619.333M5229 620L5230 621L5229 620M5294 620L5295 621L5294 620M5441 620L5442 621L5441 620M6384 620L6385 621L6384 620M6904 620L6905 621L6904 620M7086.33 620.667L7086.67 621.333L7086.33 620.667M5080 621L5081 622L5080 621M5227 621L5228 622L5227 621M5296 621L5297 622L5296 621M5490 621L5491 622L5490 621M6386.67 621.333L6387.33 621.667L6386.67 621.333M6536.33 621.667L6536.67 622.333L6536.33 621.667M5225 622L5226 623L5225 622M5298 622L5299 623L5298 622M5442 622L5443 623L5442 622M5491 622L5491 623L5583 623L5555 622L5491 622z"/>
<path style="fill:#074c8e; stroke:none;" d="M6157 622L6158 623L6157 622z"/>
<path style="fill:#577aa3; stroke:none;" d="M6389 622L6390 623L6389 622M5079 623L5080 624L5079 623M5223 623L5224 624L5223 623M5716 623L5716 657L5717 657L5717 624L5826 624L5792 623L5716 623M6391 623L6392 624L6391 623M6903.33 623.667L6903.67 624.333L6903.33 623.667M5222 624L5223 625L5222 624M5301 624L5302 625L5301 624M5443 624L5444 625L5443 624M5996 624L5996 625L6109 625L6075 624L5996 624M6156 624L6157 625L6156 624M6393 624L6394 625L6393 624M7087 624L7088 625L7087 624M5078 625L5079 626L5078 625M5220 625L5221 626L5220 625M6394 625L6395 626L6394 625M6537.33 625.667L6537.67 626.333L6537.33 625.667M5219 626L5220 627L5219 626M5304 626L5305 627L5304 626M5444 626L5445 627L5444 626M6396 626L6397 627L6396 626M6902.33 626.667L6902.67 627.333L6902.33 626.667M5217 627L5218 628L5217 627M7088.33 627.667L7088.67 628.333L7088.33 627.667M5077 628L5078 629L5077 628M5216 628L5217 629L5216 628M5307 628L5308 629L5307 628M6399 628L6400 629L6399 628M5215 629L5216 630L5215 629M5308 629L5309 630L5308 629M5445 629L5446 630L5445 629M6400 629L6401 630L6400 629M6901.33 629.667L6901.67 630.333L6901.33 629.667M5076 630L5077 631L5076 630M5214 630L5215 631L5214 630M5309 630L5310 631L5309 630M6538.33 630.667L6538.67 631.333L6538.33 630.667M7089.33 630.667L7089.67 631.333L7089.33 630.667M5213 631L5214 632L5213 631M5310 631L5311 632L5310 631M5446 631L5447 632L5446 631M6403 631L6404 632L6403 631M5311 632L5312 633L5311 632M6404 632L6405 633L6404 632M6900.33 632.667L6900.67 633.333L6900.33 632.667M5075 633L5076 634L5075 633M5312 633L5313 634L5312 633M6405 633L6406 634L6405 633M5313 634L5314 635L5313 634M5447 634L5448 635L5447 634M6406 634L6407 635L6406 634M7090 634L7091 635L7090 634M5074 635L5075 636L5074 635M5314 635L5315 636L5314 635M6407 635L6408 636L6407 635M6539 635L6539 638L6540 638L6539 635M5208 636L5209 637L5208 636M5315 636L5316 637L5315 636M5448.33 636.667L5448.67 637.333L5448.33 636.667M6628 636L6628 768L6629 768L6629 676C6629 664.58 6632.41 646.503 6628 636M6899 636L6900 637L6899 636M5207 637L5208 638L5207 637M7091 637L7092 638L7091 637M5073 638L5074 639L5073 638M5206 638L5207 639L5206 638M6409 638L6410 639L6409 638M5205 639L5206 640L5205 639M5317 639L5318 640L5317 639M5449 639L5450 640L5449 639M6410 639L6411 640L6410 639M6898 639L6899 640L6898 639M5204 640L5205 641L5204 640M5318 640L5319 641L5318 640M7092.33 640.667L7092.67 641.333L7092.33 640.667M5072 641L5073 642L5072 641M5319 641L5320 642L5319 641M6540 641L6540 645L6541 645L6540 641M5203 642L5204 643L5203 642M5450 642L5451 643L5450 642M6412 642L6413 643L6412 642M6897 642L6898 643L6897 642M5202 643L5203 644L5202 643M5320 643L5321 644L5320 643M7093.33 643.667L7093.67 644.333L7093.33 643.667M5071 644L5072 645L5071 644M5321 644L5322 645L5321 644M6413 644L6414 645L6413 644M5201 645L5202 646L5201 645M5451 645L5452 646L5451 645M6896.33 645.667L6896.67 646.333L6896.33 645.667M5200 646L5201 647L5200 646M5322 646L5323 647L5322 646M6414 646L6415 647L6414 646M5070 647L5071 648L5070 647M5323 647L5324 648L5323 647M7094 647L7095 648L7094 647M5452 648L5453 649L5452 648M6415 648L6416 649L6415 648M6895.33 648.667L6895.67 649.333L6895.33 648.667M5198 649L5199 650L5198 649M5324 649L5325 650L5324 649M5069 650L5070 651L5069 650M6416.33 650.667L6416.67 651.333L6416.33 650.667M7095.33 650.667L7095.67 651.333L7095.33 650.667M5197 651L5198 652L5197 651M5325 651L5326 652L5325 651M5453.33 651.667L5453.67 652.333L5453.33 651.667M6541 651L6541 658L6542 658L6541 651M6894.33 651.667L6894.67 652.333L6894.33 651.667M6992 651L6993 652L6992 651M5326 652L5327 653L5326 652z"/>
<path style="fill:#074c8e; stroke:none;" d="M6992 652C6984.41 708.301 6956.58 761.668 6949 818L6987 824.961L7033 819C7031.8 804.359 7026.43 789.242 7022.87 775C7017.05 751.707 7011.7 728.292 7005.87 705C7001.89 689.055 7000.55 665.996 6992 652z"/>
<path style="fill:#577aa3; stroke:none;" d="M5068.33 653.667L5068.67 654.333L5068.33 653.667M5196 653L5197 654L5196 653M6417.33 653.667L6417.67 654.333L6417.33 653.667M6993.33 653.667L6993.67 654.333L6993.33 653.667M7096.33 653.667L7096.67 654.333L7096.33 653.667M5327 654L5328 655L5327 654M5454.33 654.667L5454.67 655.333L5454.33 654.667M6893.33 654.667L6893.67 655.333L6893.33 654.667M6991.33 654.667L6991.67 655.333L6991.33 654.667M5195 655L5196 656L5195 655M5067.33 656.667L5067.67 657.333L5067.33 656.667M5328 656L5329 657L5328 656M6418 656L6418 659L6419 659L6418 656M5194 657L5195 658L5194 657M5599 657L5599 788L5600 788L5600 696C5600 684.842 5603.31 667.266 5599 657M6994.33 657.667L6994.67 658.333L6994.33 657.667M7097 657L7098 658L7097 657M5329 658L5330 659L5329 658M5455.33 658.667L5455.67 659.333L5455.33 658.667M6892 658L6893 659L6892 658M6990.33 658.667L6990.67 659.333L6990.33 658.667M5193 659L5194 660L5193 659M5066.33 660.667L5066.67 661.333L5066.33 660.667M7098 660L7099 661L7098 660M5192 661L5193 662L5192 661M5330 661L5331 662L5330 661M6419 661L6419 664L6420 664L6419 661M6891 661L6892 662L6891 661M6989.33 661.667L6989.67 662.333L6989.33 661.667M6995.33 661.667L6995.67 662.333L6995.33 661.667M5456.33 662.667L5456.67 663.333L5456.33 662.667M5191.33 663.667L5191.67 664.333L5191.33 663.667M5331.33 663.667L5331.67 664.333L5331.33 663.667M7099.33 663.667L7099.67 664.333L7099.33 663.667M5065.33 664.667L5065.67 665.333L5065.33 664.667M6890 664L6891 665L6890 664M6988.33 665.667L6988.67 666.333L6988.33 665.667M6996.33 665.667L6996.67 666.333L6996.33 665.667M5190 666L5191 667L5190 666M5332 666L5333 667L5332 666M5457.33 666.667L5457.67 667.333L5457.33 666.667M7100.33 666.667L7100.67 667.333L7100.33 666.667M6889.33 667.667L6889.67 668.333L6889.33 667.667M5064.33 668.667L5064.67 669.333L5064.33 668.667M5189.33 668.667L5189.67 669.333L5189.33 668.667M5333.33 668.667L5333.67 669.333L5333.33 668.667M6420 668L6420 675L6421 675L6420 668M6987.33 669.667L6987.67 670.333L6987.33 669.667M6997.33 669.667L6997.67 670.333L6997.33 669.667M5458.33 670.667L5458.67 671.333L5458.33 670.667M6888.33 670.667L6888.67 671.333L6888.33 670.667M7101 670L7102 671L7101 670M5188.33 671.667L5188.67 672.333L5188.33 671.667M5334.33 671.667L5334.67 672.333L5334.33 671.667M6340 671L6340 803L6341 803L6341 711C6341 699.58 6344.41 681.503 6340 671M5063 672L5063 675L5064 675L5063 672M6887.33 673.667L6887.67 674.333L6887.33 673.667M6986.33 673.667L6986.67 674.333L6986.33 673.667M6998.33 673.667L6998.67 674.333L6998.33 673.667M7102.33 673.667L7102.67 674.333L7102.33 673.667M5187.33 674.667L5187.67 675.333L5187.33 674.667M5335 675L5336 676L5335 675M5459.33 675.667L5459.67 676.333L5459.33 675.667M6541 676L6541 683L6542 683L6541 676M6886.33 676.667L6886.67 677.333L6886.33 676.667M7103.33 676.667L7103.67 677.333L7103.33 676.667M5062.33 677.667L5062.67 678.333L5062.33 677.667M6985 677L6986 678L6985 677M5186 678L5187 679L5186 678M5336.33 678.667L5336.67 679.333L5336.33 678.667M6999.33 678.667L6999.67 679.333L6999.33 678.667M5460 679L5460 682L5461 682L5460 679M6885 680L6886 681L6885 680M6984.33 680.667L6984.67 681.333L6984.33 680.667M7104 680L7105 681L7104 680M5185.33 681.667L5185.67 682.333L5185.33 681.667M5337 681L5337 684L5338 684L5337 681M5061 682L5061 685L5062 685L5061 682M6420 682L6420 689L6421 689L6420 682M7000.33 682.667L7000.67 683.333L7000.33 682.667M6884 683L6885 684L6884 683M7105 683L7106 684L7105 683M5461 684L5461 687L5462 687L5461 684M6983.33 684.667L6983.67 685.333L6983.33 684.667M5184.33 685.667L5184.67 686.333L5184.33 685.667M5338.33 686.667L5338.67 687.333L5338.33 686.667M6883.33 686.667L6883.67 687.333L6883.33 686.667M7001.33 686.667L7001.67 687.333L7001.33 686.667M7106.33 686.667L7106.67 687.333L7106.33 686.667M5060 687L5060 690L5061 690L5060 687M6540 688L6540 692L6541 692L6540 688M6982.33 688.667L6982.67 689.333L6982.33 688.667M5183.33 689.667L5183.67 690.333L5183.33 689.667M6882.33 689.667L6882.67 690.333L6882.33 689.667M7107.33 689.667L7107.67 690.333L7107.33 689.667M5339.33 690.667L5339.67 691.333L5339.33 690.667M5462 690L5462 693L5463 693L5462 690M7002.33 690.667L7002.67 691.333L7002.33 690.667M6881.33 692.667L6881.67 693.333L6881.33 692.667M6981.33 692.667L6981.67 693.333L6981.33 692.667M5059 693L5059 696L5060 696L5059 693M5182 693L5182 696L5183 696L5182 693M6419 693L6419 696L6420 696L6419 693M7108 693L7109 694L7108 693M7003.33 694.667L7003.67 695.333L7003.33 694.667M5340 695L5340 698L5341 698L5340 695M6539 695L6539 698L6540 698L6539 695M6880.33 695.667L6880.67 696.333L6880.33 695.667M5463 696L5463 700L5464 700L5463 696M6071 696L6071 697L6123 698L6107 696L6071 696z"/>
<path style="fill:#074c8e; stroke:none;" d="M6122 696L6123 697L6122 696z"/>
<path style="fill:#577aa3; stroke:none;" d="M6980 696L6981 697L6980 696M7109.33 696.667L7109.67 697.333L7109.33 696.667M6418 698L6418 701L6419 701L6418 698M7004.33 698.667L7004.67 699.333L7004.33 698.667M5181 699L5181 702L5182 702L5181 699M6879 699L6880 700L6879 699M6979.33 699.667L6979.67 700.333L6979.33 699.667M7110.33 699.667L7110.67 700.333L7110.33 699.667M5058 700L5058 703L5059 703L5058 700z"/>
<path style="fill:#074c8e; stroke:none;" d="M6123 700L6124 701L6123 700z"/>
<path style="fill:#577aa3; stroke:none;" d="M5341 701L5341 704L5342 704L5341 701M6123 701L6123 704L6124 704L6123 701M6538 701L6538 704L6539 704L6538 701M6878 702L6879 703L6878 702M7005.33 702.667L7005.67 703.333L7005.33 702.667M7111.33 702.667L7111.67 703.333L7111.33 702.667M6417.33 703.667L6417.67 704.333L6417.33 703.667M6978.33 703.667L6978.67 704.333L6978.33 703.667M5464 704L5464 708L5465 708L5464 704M5180 705L5180 708L5181 708L5180 705M6877 705L6878 706L6877 705z"/>
<path style="fill:#074c8e; stroke:none;" d="M6124 706L6125 707L6124 706z"/>
<path style="fill:#577aa3; stroke:none;" d="M6537.33 706.667L6537.67 707.333L6537.33 706.667M7006.33 706.667L7006.67 707.333L7006.33 706.667M7112 706L7113 707L7112 706M5057 707L5057 712L5058 712L5057 707M6124 707L6124 710L6125 710L6124 707M6416 707L6417 708L6416 707M6977.33 707.667L6977.67 708.333L6977.33 707.667M5342 708L5342 712L5343 712L5342 708M6876.33 708.667L6876.67 709.333L6876.33 708.667M7113.33 709.667L7113.67 710.333L7113.33 709.667M6415 710L6416 711L6415 710M6536.33 710.667L6536.67 711.333L6536.33 710.667M7007.33 710.667L7007.67 711.333L7007.33 710.667M6875.33 711.667L6875.67 712.333L6875.33 711.667M6976.33 711.667L6976.67 712.333L6976.33 711.667M5465 712L5465 717L5466 717L5465 712z"/>
<path style="fill:#074c8e; stroke:none;" d="M6125 712L6126 713L6125 712M6224 712L6225 713L6224 712z"/>
<path style="fill:#577aa3; stroke:none;" d="M7114.33 712.667L7114.67 713.333L7114.33 712.667M5179 713L5179 717L5180 717L5179 713M6125 713L6125 717L6126 717L6125 713M6224 713L6224 844L6225 844L6225 753C6225 741.58 6228.41 723.504 6224 713M6414 713L6415 714L6414 713M6535.33 713.667L6535.67 714.333L6535.33 713.667M6874.33 714.667L6874.67 715.333L6874.33 714.667M6975.33 714.667L6975.67 715.333L6975.33 714.667M7008.33 714.667L7008.67 715.333L7008.33 714.667M6413.33 715.667L6413.67 716.333L6413.33 715.667M5056 716L5056 722L5057 722L5056 716M6534.33 716.667L6534.67 717.333L6534.33 716.667M7115 716L7116 717L7115 716M5343 717L5343 722L5344 722L5343 717M6873.33 717.667L6873.67 718.333L6873.33 717.667M6412 718L6413 719L6412 718M6974.33 718.667L6974.67 719.333L6974.33 718.667M6533.33 719.667L6533.67 720.333L6533.33 719.667M7009.33 719.667L7009.67 720.333L7009.33 719.667M7116.33 719.667L7116.67 720.333L7116.33 719.667M6126 720L6126 724L6127 724L6126 720M6411 720L6412 721L6411 720M5178 721L5178 728L5179 728L5178 721M6872 721L6873 722L6872 721M6410 722L6411 723L6410 722M6532.33 722.667L6532.67 723.333L6532.33 722.667M6973.33 722.667L6973.67 723.333L6973.33 722.667M7117.33 722.667L7117.67 723.333L7117.33 722.667M5466 723L5466 730L5467 730L5466 723M7010.33 723.667L7010.67 724.333L7010.33 723.667M6871 724L6872 725L6871 724M6409 725L6410 726L6409 725M6531 725L6532 726L6531 725M7118.33 725.667L7118.67 726.333L7118.33 725.667M4771 726L4771 858L4772 858L4772 766C4772 754.58 4775.41 736.504 4771 726M6972.33 726.667L6972.67 727.333L6972.33 726.667M6408 727L6409 728L6408 727M6530.33 727.667L6530.67 728.333L6530.33 727.667M6870 727L6871 728L6870 727M7011.33 727.667L7011.67 728.333L7011.33 727.667M5055 728L5055 737L5056 737L5055 728M5344 729L5344 738L5345 738L5344 729z"/>
<path style="fill:#074c8e; stroke:none;" d="M6127 729L6128 730L6127 729z"/>
<path style="fill:#577aa3; stroke:none;" d="M6407 729L6408 730L6407 729M7119 729L7120 730L7119 729M6127 730L6127 736L6128 736L6127 730M6529 730L6530 731L6529 730M6869.33 730.667L6869.67 731.333L6869.33 730.667M6971 730L6972 731L6971 730M6406 731L6407 732L6406 731M7012.33 731.667L7012.67 732.333L7012.33 731.667M6405 732L6406 733L6405 732M6528 732L6529 733L6528 732M7120.33 732.667L7120.67 733.333L7120.33 732.667M6868.33 733.667L6868.67 734.333L6868.33 733.667M6970.33 733.667L6970.67 734.333L6970.33 733.667M6404 734L6405 735L6404 734M6527 734L6528 735L6527 734M7013.33 735.667L7013.67 736.333L7013.33 735.667M7121.33 735.667L7121.67 736.333L7121.33 735.667M5177 736L5177 749L5178 749L5177 736M6403 736L6404 737L6403 736M6526.33 736.667L6526.67 737.333L6526.33 736.667M6867.33 736.667L6867.67 737.333L6867.33 736.667M6969.33 737.667L6969.67 738.333L6969.33 737.667M6401 739L6402 740L6401 739M6525 739L6526 740L6525 739M6866.33 739.667L6866.67 740.333L6866.33 739.667M7014.33 739.667L7014.67 740.333L7014.33 739.667M7122 739L7123 740L7122 739M6968.33 741.667L6968.67 742.333L6968.33 741.667M5467 742L5467 770L5468 770L5467 742M6399 742L6400 743L6399 742M6523 742L6524 743L6523 742M7123.33 742.667L7123.67 743.333L7123.33 742.667M6865 743L6866 744L6865 743M7015.33 743.667L7015.67 744.333L7015.33 743.667M6522 744L6523 745L6522 744M6397 745L6398 746L6397 745M6967.33 745.667L6967.67 746.333L6967.33 745.667M7124.33 745.667L7124.67 746.333L7124.33 745.667M6396 746L6397 747L6396 746M6521 746L6522 747L6521 746M6864 746L6865 747L6864 746M7016.33 747.667L7016.67 748.333L7016.33 747.667M6520 748L6521 749L6520 748M6966.33 748.667L6966.67 749.333L6966.33 748.667M7125.33 748.667L7125.67 749.333L7125.33 748.667M6394 749L6395 750L6394 749M6519 749L6520 750L6519 749M6863 749L6864 750L6863 749M6393 750L6394 751L6393 750M6518 751L6519 752L6518 751M7017.33 751.667L7017.67 752.333L7017.33 751.667M6517 752L6518 753L6517 752M6862.33 752.667L6862.67 753.333L6862.33 752.667M6965.33 752.667L6965.67 753.333L6965.33 752.667M7126 752L7127 753L7126 752M6391 753L6392 754L6391 753M6390 754L6391 755L6390 754M6516 754L6517 755L6516 754M6389 755L6390 756L6389 755M6515 755L6516 756L6515 755M6861.33 755.667L6861.67 756.333L6861.33 755.667M7018.33 755.667L7018.67 756.333L7018.33 755.667M7127.33 755.667L7127.67 756.333L7127.33 755.667M6388 756L6389 757L6388 756M6964.33 756.667L6964.67 757.333L6964.33 756.667M6387 757L6388 758L6387 757M6514 757L6515 758L6514 757M5054 758L5055 759L5054 758M6386 758L6387 759L6386 758M6513 758L6514 759L6513 758M6860.33 758.667L6860.67 759.333L6860.33 758.667M7128.33 758.667L7128.67 759.333L7128.33 758.667M6127 759L6127 765L6128 765L6127 759M6385 759L6386 760L6385 759M6384 760L6385 761L6384 760M6963.33 760.667L6963.67 761.333L6963.33 760.667M7019.33 760.667L7019.67 761.333L7019.33 760.667M6383 761L6384 762L6383 761M6511 761L6512 762L6511 761M6859.33 761.667L6859.67 762.333L6859.33 761.667M6382 762L6383 763L6382 762M6510 762L6511 763L6510 762M7129 762L7130 763L7129 762M6381 763L6382 764L6381 763M6509 763L6510 764L6509 763M6380 764L6381 765L6380 764M6962 764L6963 765L6962 764M7020.33 764.667L7020.67 765.333L7020.33 764.667M6379 765L6380 766L6379 765M6858 765L6859 766L6858 765M7130 765L7131 766L7130 765M5177 766L5177 779L5178 779L5177 766M6378 766L6379 767L6378 766M6507 766L6508 767L6507 766M6506 767L6507 768L6506 767M6744 767L6744 898L6745 898L6745 807C6745 795.58 6748.41 777.504 6744 767M6961.33 767.667L6961.67 768.333L6961.33 767.667M6375 768L6376 769L6375 768M6505 768L6506 769L6505 768M6857 768L6858 769L6857 768M7021.33 768.667L7021.67 769.333L7021.33 768.667M7131.33 768.667L7131.67 769.333L7131.33 768.667M6374 769L6375 770L6374 769M6504 769L6505 770L6504 769M6126 770L6126 774L6127 774L6126 770M6503 770L6504 771L6503 770M6371 771L6372 772L6371 771M6502 771L6503 772L6502 771M6856.33 771.667L6856.67 772.333L6856.33 771.667M6960.33 771.667L6960.67 772.333L6960.33 771.667M7132.33 771.667L7132.67 772.333L7132.33 771.667M5344 772L5344 781L5345 781L5344 772M6370 772L6371 773L6370 772M6501 772L6502 773L6501 772M7022.33 772.667L7022.67 773.333L7022.33 772.667M6368 773L6369 774L6368 773M6500 773L6501 774L6500 773z"/>
<path style="fill:#074c8e; stroke:none;" d="M6126 774L6127 775L6126 774z"/>
<path style="fill:#577aa3; stroke:none;" d="M6366 774L6367 775L6366 774M6499 774L6500 775L6499 774M6855.33 774.667L6855.67 775.333L6855.33 774.667M6364 775L6365 776L6364 775M6498 775L6499 776L6498 775M6959.33 775.667L6959.67 776.333L6959.33 775.667M7133 775L7134 776L7133 775M6363 776L6364 777L6363 776M6497 776L6498 777L6497 776M7023.33 776.667L7023.67 777.333L7023.33 776.667M5055 777L5055 786L5056 786L5055 777M6361 777L6362 778L6361 777M6496 777L6497 778L6496 777M6854.33 777.667L6854.67 778.333L6854.33 777.667M6125 778L6125 781L6126 781L6125 778M6360.33 778.667L6360.67 779.333L6360.33 778.667M6495 778L6496 779L6495 778M7134.33 778.667L7134.67 779.333L7134.33 778.667M6494 779L6495 780L6494 779M6958.33 779.667L6958.67 780.333L6958.33 779.667M5466 780L5466 788L5467 788L5466 780M6493 780L6494 781L6493 780M6853.33 780.667L6853.67 781.333L6853.33 780.667M7024.33 780.667L7024.67 781.333L7024.33 780.667z"/>
<path style="fill:#074c8e; stroke:none;" d="M6125 781L6126 782L6125 781z"/>
<path style="fill:#577aa3; stroke:none;" d="M6361 781L6362 782L6361 781M6492 781L6493 782L6492 781M7135.33 781.667L7135.67 782.333L7135.33 781.667M6491 782L6492 783L6491 782M6957.33 782.667L6957.67 783.333L6957.33 782.667M6362 783L6363 784L6362 783M6490 783L6491 784L6490 783M6852 784L6853 785L6852 784M7025.33 784.667L7025.67 785.333L7025.33 784.667M6124 785L6124 788L6125 788L6124 785M6363.33 785.667L6363.67 786.333L6363.33 785.667M6487 785L6488 786L6487 785M7136 785L7137 786L7136 785M6486 786L6487 787L6486 786M6956.33 786.667L6956.67 787.333L6956.33 786.667M6485 787L6486 788L6485 787M6851 787L6852 788L6851 787M5178 788L5178 794L5179 794L5178 788M5343 788L5343 793L5344 793L5343 788M5715 788L5715 920L5716 920L5716 828C5716 816.58 5719.41 798.504 5715 788M6364 788L6365 789L6364 788M6484 788L6485 789L6484 788M7026.33 788.667L7026.67 789.333L7026.33 788.667M7137 788L7138 789L7137 788M6123 790L6123 793L6124 793L6123 790M6365 790L6366 791L6365 790M6481 790L6482 791L6481 790M6850 790L6851 791L6850 790M6955.33 790.667L6955.67 791.333L6955.33 790.667M7138.33 791.667L7138.67 792.333L7138.33 791.667M6366.33 792.667L6366.67 793.333L6366.33 792.667M7027.33 792.667L7027.67 793.333L7027.33 792.667M5056 793L5056 798L5057 798L5056 793M6481 793L6482 794L6481 793M6849.33 793.667L6849.67 794.333L6849.33 793.667M5465 794L5465 799L5466 799L5465 794M6954.33 794.667L6954.67 795.333L6954.33 794.667M7139.33 794.667L7139.67 795.333L7139.33 794.667M6367 795L6368 796L6367 795M6482 795L6483 796L6482 795M6122.33 796.667L6122.67 797.333L6122.33 796.667M6848.33 796.667L6848.67 797.333L6848.33 796.667M7028.33 796.667L7028.67 797.333L7028.33 796.667M6368 797L6369 798L6368 797M6483 797L6484 798L6483 797M5342 798L5342 802L5343 802L5342 798z"/>
<path style="fill:#074c8e; stroke:none;" d="M6122 798L6123 799L6122 798z"/>
<path style="fill:#577aa3; stroke:none;" d="M6953 798L6954 799L6953 798M7140 798L7141 799L7140 798M5179 799L5179 803L5180 803L5179 799M5995 799L5995 878L5996 878L5996 824L5995 799z"/>
<path style="fill:#074c8e; stroke:none;" d="M6118 799L6119 800L6118 799z"/>
<path style="fill:#577aa3; stroke:none;" d="M6119 799L6119 800L6122 800L6119 799M6369.33 799.667L6369.67 800.333L6369.33 799.667M6484 799L6485 800L6484 799M6847.33 799.667L6847.67 800.333L6847.33 799.667M6485 801L6486 802L6485 801M6952.33 801.667L6952.67 802.333L6952.33 801.667M7029.33 801.667L7029.67 802.333L7029.33 801.667M7141.33 801.667L7141.67 802.333L7141.33 801.667M6370 802L6371 803L6370 802M6846.33 802.667L6846.67 803.333L6846.33 802.667M5057 803L5057 807L5058 807L5057 803M5464 803L5464 808L5465 808L5464 803M6486 803L6487 804L6486 803M6371 804L6372 805L6371 804M7142.33 804.667L7142.67 805.333L7142.33 804.667M6487 805L6488 806L6487 805M6951.33 805.667L6951.67 806.333L6951.33 805.667M7030.33 805.667L7030.67 806.333L7030.33 805.667M5341 806L5341 809L5342 809L5341 806M6372.33 806.667L6372.67 807.333L6372.33 806.667M6845 806L6846 807L6845 806M5180 807L5180 810L5181 810L5180 807M6488 807L6489 808L6488 807M7143 808L7144 809L7143 808M6373 809L6374 810L6373 809M6489 809L6490 810L6489 809M6844 809L6845 810L6844 809M6950.33 809.667L6950.67 810.333L6950.33 809.667M7031.33 809.667L7031.67 810.333L7031.33 809.667M5058 811L5058 814L5059 814L5058 811M5463 811L5463 814L5464 814L5463 811M6374 811L6375 812L6374 811M6490 811L6491 812L6490 811M7144 811L7145 812L7144 811M5340 812L5340 815L5341 815L5340 812M6843 812L6844 813L6843 812M5181 813L5181 816L5182 816L5181 813M6375.33 813.667L6375.67 814.333L6375.33 813.667M6491 813L6492 814L6491 813M6949.33 813.667L6949.67 814.333L6949.33 813.667M7032.33 813.667L7032.67 814.333L7032.33 813.667M7145.33 814.667L7145.67 815.333L7145.33 814.667M6492 815L6493 816L6492 815M6842.33 815.667L6842.67 816.333L6842.33 815.667M6376 816L6377 817L6376 816M6948.33 816.667L6948.67 817.333L6948.33 816.667M6493 817L6494 818L6493 817M7033.33 817.667L7033.67 818.333L7033.33 817.667M7146.33 817.667L7146.67 818.333L7146.33 817.667M5059 818L5059 821L5060 821L5059 818M5339.33 818.667L5339.67 819.333L5339.33 818.667M5462 818L5462 821L5463 821L5462 818M6377 818L6378 819L6377 818M6841.33 818.667L6841.67 819.333L6841.33 818.667M6950.67 818.333L6951.33 818.667L6950.67 818.333M5182.33 819.667L5182.67 820.333L5182.33 819.667M6494 819L6495 820L6494 819M6954.67 819.333L6955.33 819.667L6954.67 819.333M7030.67 819.333L7031.33 819.667L7030.67 819.333M6378.33 820.667L6378.67 821.333L6378.33 820.667M6957.67 820.333L6958.33 820.667L6957.67 820.333M7025.67 820.333L7026.33 820.667L7025.67 820.333M6495 821L6496 822L6495 821M6840.33 821.667L6840.67 822.333L6840.33 821.667M6962.67 821.333L6963.33 821.667L6962.67 821.333M7021.67 821.333L7022.33 821.667L7021.67 821.333M7147 821L7148 822L7147 821M5338.33 822.667L5338.67 823.333L5338.33 822.667M6966.67 822.333L6967.33 822.667L6966.67 822.333M7015 822L7015 823L7018 823L7015 822M6379 823L6380 824L6379 823M6496 823L6497 824L6496 823M6970 823L6970 824L6974 824L6970 823M7009 823L7009 824L7013 824L7009 823M5060 824L5060 827L5061 827L5060 824M5183.33 824.667L5183.67 825.333L5183.33 824.667M5461.33 824.667L5461.67 825.333L5461.33 824.667M6839.33 824.667L6839.67 825.333L6839.33 824.667M6977 824L6977 825L6983 825L6977 824M6998 824L6998 825L7004 825L6998 824M7148.33 824.667L7148.67 825.333L7148.33 824.667M6380 825L6381 826L6380 825M6497 825L6498 826L6497 825M5337.33 827.667L5337.67 828.333L5337.33 827.667M6381.33 827.667L6381.67 828.333L6381.33 827.667M6498 827L6499 828L6498 827M7149.33 827.667L7149.67 828.333L7149.33 827.667M5184.33 828.667L5184.67 829.333L5184.33 828.667M6838 828L6839 829L6838 828M5061 829L5061 832L5062 832L5061 829M5460 829L5460 832L5461 832L5460 829M6499 829L6500 830L6499 829M6382 830L6383 831L6382 830M7150.33 830.667L7150.67 831.333L7150.33 830.667M5336.33 831.667L5336.67 832.333L5336.33 831.667M6837 831L6838 832L6837 831M5185.33 832.667L5185.67 833.333L5185.33 832.667M6383 832L6384 833L6383 832M6501 832L6502 833L6501 832M5062 834L5062 837L5063 837L5062 834M5335.33 834.667L5335.67 835.333L5335.33 834.667M5459.33 834.667L5459.67 835.333L5459.33 834.667M6384.33 834.667L6384.67 835.333L6384.33 834.667M6502 834L6503 835L6502 834M6836 834L6837 835L6836 834M7151 834L7152 835L7151 834M5186 836L5187 837L5186 836M6503 836L6504 837L6503 836M5334.33 837.667L5334.67 838.333L5334.33 837.667M6385 837L6386 838L6385 837M6835.33 837.667L6835.67 838.333L6835.33 837.667M7152.33 837.667L7152.67 838.333L7152.33 837.667M6504 838L6505 839L6504 838M5063.33 839.667L5063.67 840.333L5063.33 839.667M5187.33 839.667L5187.67 840.333L5187.33 839.667M5458.33 839.667L5458.67 840.333L5458.33 839.667M6386 839L6387 840L6386 839M5333.33 840.667L5333.67 841.333L5333.33 840.667M6505 840L6506 841L6505 840M6834.33 840.667L6834.67 841.333L6834.33 840.667M7153.33 840.667L7153.67 841.333L7153.33 840.667M6387.33 841.667L6387.67 842.333L6387.33 841.667M5188.33 842.667L5188.67 843.333L5188.33 842.667M6506 842L6507 843L6506 842M5064.33 843.667L5064.67 844.333L5064.33 843.667M5457.33 843.667L5457.67 844.333L5457.33 843.667M6833.33 843.667L6833.67 844.333L6833.33 843.667M5332 844L5333 845L5332 844M6388 844L6389 845L6388 844M6507 844L6508 845L6507 844M7154 844L7155 845L7154 844M5189 845L5190 846L5189 845M5331 846L5332 847L5331 846M6389 846L6390 847L6389 846M6508 846L6509 847L6508 846M6832.33 846.667L6832.67 847.333L6832.33 846.667M5065 847L5065 850L5066 850L5065 847M5190.33 847.667L5190.67 848.333L5190.33 847.667M5456.33 847.667L5456.67 848.333L5456.33 847.667M7155.33 847.667L7155.67 848.333L7155.33 847.667M5330.33 848.667L5330.67 849.333L5330.33 848.667M6390.33 848.667L6390.67 849.333L6390.33 848.667M6509 848L6510 849L6509 848M5191 850L5192 851L5191 850M6510 850L6511 851L6510 850M6831 850L6832 851L6831 850M7156.33 850.667L7156.67 851.333L7156.33 850.667M5066.33 851.667L5066.67 852.333L5066.33 851.667M5329 851L5330 852L5329 851M5455.33 851.667L5455.67 852.333L5455.33 851.667M6391 851L6392 852L6391 851M6511 852L6512 853L6511 852M5192 853L5193 854L5192 853M5328 853L5329 854L5328 853M6392 853L6393 854L6392 853M6830 853L6831 854L6830 853M7157.33 853.667L7157.67 854.333L7157.33 853.667M6512 854L6513 855L6512 854M5067.33 855.667L5067.67 856.333L5067.33 855.667M5193 855L5194 856L5193 855M5327 855L5328 856L5327 855M5454.33 855.667L5454.67 856.333L5454.33 855.667M6393 855L6394 856L6393 855M4887 856L4887 886L4888 886L4887 856M6513 856L6514 857L6513 856M6829.33 856.667L6829.67 857.333L6829.33 856.667M5194 857L5195 858L5194 857M5326 857L5327 858L5326 857M7158 857L7159 858L7158 857M5068.33 858.667L5068.67 859.333L5068.33 858.667M5453.33 858.667L5453.67 859.333L5453.33 858.667M6394 858L6395 859L6394 858M6514 858L6515 859L6514 858M5195 859L5196 860L5195 859M5325 859L5326 860L5325 859M6828.33 859.667L6828.67 860.333L6828.33 859.667M6395 860L6396 861L6395 860M6515 860L6516 861L6515 860M7159.33 860.667L7159.67 861.333L7159.33 860.667M5196 861L5197 862L5196 861M5324 861L5325 862L5324 861M5452.33 861.667L5452.67 862.333L5452.33 861.667M5069 862L5070 863L5069 862M5197 862L5198 863L5197 862M6396 862L6397 863L6396 862M6516 862L6517 863L6516 862M6827.33 862.667L6827.67 863.333L6827.33 862.667M7160.33 863.667L7160.67 864.333L7160.33 863.667M5198 864L5199 865L5198 864M5322 864L5323 865L5322 864M6517 864L6518 865L6517 864M5070 865L5071 866L5070 865M5451 865L5452 866L5451 865M6397 865L6398 866L6397 865M6826.33 865.667L6826.67 866.333L6826.33 865.667M6518 866L6519 867L6518 866M5200 867L5201 868L5200 867M5320 867L5321 868L5320 867M5450.33 867.667L5450.67 868.333L5450.33 867.667M6398 867L6399 868L6398 867M7161 867L7162 868L7161 867M5071 868L5072 869L5071 868M5201 868L5202 869L5201 868M6519 868L6520 869L6519 868M6399 869L6400 870L6399 869M6825 869L6826 870L6825 869M5202 870L5203 871L5202 870M5318 870L5319 871L5318 870M5449.33 870.667L5449.67 871.333L5449.33 870.667M6520 870L6521 871L6520 870M7162.33 870.667L7162.67 871.333L7162.33 870.667M5072 871L5073 872L5072 871M5203 871L5204 872L5203 871M5317 871L5318 872L5317 871M5204 872L5205 873L5204 872M6400 872L6401 873L6400 872M6521 872L6522 873L6521 872M6824 872L6825 873L6824 872M5448.33 873.667L5448.67 874.333L5448.33 873.667M7163.33 873.667L7163.67 874.333L7163.33 873.667M5073 874L5074 875L5073 874M6401 874L6402 875L6401 874M6522 874L6523 875L6522 874M5314 875L5315 876L5314 875M6823 875L6824 876L6823 875M5074 876L5075 877L5074 876M5207 876L5208 877L5207 876M5313 876L5314 877L5313 876M5447 876L5448 877L5447 876M6402 876L6403 877L6402 876M6523 876L6524 877L6523 876M7164.33 876.667L7164.67 877.333L7164.33 876.667M5208 877L5209 878L5208 877M5312 877L5313 878L5312 877z"/>
<path style="fill:#074c8e; stroke:none;" d="M5878 877L5879 878L5878 877z"/>
<path style="fill:#577aa3; stroke:none;" d="M5209 878L5210 879L5209 878M5311 878L5312 879L5311 878M5446.33 878.667L5446.67 879.333L5446.33 878.667M5878 878L5878 993L5879 993L5879 913L5878 878z"/>
<path style="fill:#074c8e; stroke:none;" d="M5995 878L5996 879L5995 878z"/>
<path style="fill:#577aa3; stroke:none;" d="M6524 878L6525 879L6524 878M6822.33 878.667L6822.67 879.333L6822.33 878.667M5075 879L5076 880L5075 879M5210 879L5211 880L5210 879M5310 879L5311 880L5310 879M6403 879L6404 880L6403 879M7165.33 879.667L7165.67 880.333L7165.33 879.667M5309 880L5310 881L5309 880M6525 880L6526 881L6525 880M5076.33 881.667L5076.67 882.333L5076.33 881.667M5445 881L5446 882L5445 881M6404 881L6405 882L6404 881M6821.33 881.667L6821.67 882.333L6821.33 881.667M5214 882L5215 883L5214 882M6526 882L6527 883L6526 882M5215 883L5216 884L5215 883M5305 883L5306 884L5305 883M5444.33 883.667L5444.67 884.333L5444.33 883.667M6405 883L6406 884L6405 883M7166.33 883.667L7166.67 884.333L7166.33 883.667M5077 884L5078 885L5077 884M5216 884L5217 885L5216 884M5304 884L5305 885L5304 884M6527 884L6528 885L6527 884M6820.33 884.667L6820.67 885.333L6820.33 884.667M5218 885L5219 886L5218 885M4981 886L4981 887L5039 887L5020 886L4981 886M5078 886L5079 887L5078 886M5219 886L5220 887L5219 886M5301 886L5302 887L5301 886M5443 886L5444 887L5443 886M6406 886L6407 887L6406 886M6528 886L6529 887L6528 886M7167.33 886.667L7167.67 887.333L7167.33 886.667M5221 887L5222 888L5221 887M6819.33 887.667L6819.67 888.333L6819.33 887.667M5039 888L5039 891L5040 891L5039 888M5079 888L5080 889L5079 888M5222 888L5223 889L5222 888M5298 888L5299 889L5298 888M5442 888L5443 889L5442 888M6407 888L6408 889L6407 888M6529 888L6530 889L6529 888M5224 889L5225 890L5224 889M5296 889L5297 890L5296 889M7168.33 889.667L7168.67 890.333L7168.33 889.667M5080.33 890.667L5080.67 891.333L5080.33 890.667M5226 890L5227 891L5226 890M5294 890L5295 891L5294 890M5441 890L5442 891L5441 890M6408 890L6409 891L6408 890M6530 890L6531 891L6530 890M5228 891L5229 892L5228 891M5292 891L5293 892L5292 891M5995 891L5995 892L6083 892L6056 891L5995 891z"/>
<path style="fill:#074c8e; stroke:none;" d="M6083 891L6084 892L6083 891z"/>
<path style="fill:#577aa3; stroke:none;" d="M6818 891L6819 892L6818 891M5231 892L5232 893L5231 892M5290 892L5291 893L5290 892M5440 892L5441 893L5440 892M6159 892L6160 893L6159 892M6531 892L6532 893L6531 892M5040 893L5040 896L5041 896L5040 893M5081 893L5082 894L5081 893M5233.67 893.333L5234.33 893.667L5233.67 893.333M5287 893L5288 894L5287 893M6409 893L6410 894L6409 893M7169 893L7170 894L7169 893M5236.67 894.333L5237.33 894.667L5236.67 894.333M5284 894L5285 895L5284 894M5439 894L5440 895L5439 894M6532 894L6533 895L6532 894M6817 894L6818 895L6817 894M5082 895L5083 896L5082 895M5240.67 895.333L5241.33 895.667L5240.67 895.333M5280.67 895.333L5281.33 895.667L5280.67 895.333M6160 895L6160 898L6161 898L6160 895M6410 895L6411 896L6410 895M5245 896L5245 897L5248 897L5245 896M5274 896L5274 897L5277 897L5274 896M5438 896L5439 897L5438 896M6533 896L6534 897L6533 896M7170.33 896.667L7170.67 897.333L7170.33 896.667M5083 897L5084 898L5083 897M5251 897L5251 898L5258 898L5251 897M5264 897L5264 898L5271 898L5264 897M6411 897L6412 898L6411 897M6816 897L6817 898L6816 897M5437 898L5438 899L5437 898M6534 898L6535 899L6534 898M5041 899L5041 903L5042 903L5041 899M5084 899L5085 900L5084 899M7171.33 899.667L7171.67 900.333L7171.33 899.667M5436 900L5437 901L5436 900M6161 900L6161 903L6162 903L6161 900M6412 900L6413 901L6412 900M6535 900L6536 901L6535 900M6627 900L6627 994L6628 994L6628 929L6627 900M6815.33 900.667L6815.67 901.333L6815.33 900.667M5085 901L5086 902L5085 901M5435 902L5436 903L5435 902M6413 902L6414 903L6413 902M6536 902L6537 903L6536 902M7172.33 902.667L7172.67 903.333L7172.33 902.667M5086 903L5087 904L5086 903M6814.33 903.667L6814.67 904.333L6814.33 903.667M5087 904L5088 905L5087 904M5434 904L5435 905L5434 904M6414 904L6415 905L6414 904M6537 904L6538 905L6537 904M7054.67 905.333L7055.33 905.667L7054.67 905.333M5042 906L5042 911L5043 911L5042 906M5088 906L5089 907L5088 906M5433 906L5434 907L5433 906M6162 906L6162 910L6163 910L6162 906M6538 906L6539 907L6538 906M6813.33 906.667L6813.67 907.333L6813.33 906.667M6925.67 906.333L6926.33 906.667L6925.67 906.333M7050.67 906.333L7051.33 906.667L7050.67 906.333M7173.33 906.667L7173.67 907.333L7173.33 906.667M6415 907L6416 908L6415 907M6929.67 907.333L6930.33 907.667L6929.67 907.333M7046.67 907.333L7047.33 907.667L7046.67 907.333M7056.33 907.667L7056.67 908.333L7056.33 907.667M5089 908L5090 909L5089 908M6539 908L6540 909L6539 908M6923.33 908.667L6923.67 909.333L6923.33 908.667M6933 908L6933 909L6936 909L6933 908M7042.67 908.333L7043.33 908.667L7042.67 908.333M5431 909L5432 910L5431 909M6416 909L6417 910L6416 909M6812.33 909.667L6812.67 910.333L6812.33 909.667M6938.67 909.333L6939.33 909.667L6938.67 909.333M7038.67 909.333L7039.33 909.667L7038.67 909.333M7174.33 909.667L7174.67 910.333L7174.33 909.667M6540 910L6541 911L6540 910M6942 910L6942 911L6945 911L6942 910M7033.67 910.333L7034.33 910.667L7033.67 910.333M5091 911L5092 912L5091 911M5430 911L5431 912L5430 911M6417 911L6418 912L6417 911M6947 911L6947 912L6950 912L6947 911M7027 911L7027 912L7030 912L7027 911M7057.33 911.667L7057.67 912.333L7057.33 911.667M6541 912L6542 913L6541 912M6922.33 912.667L6922.67 913.333L6922.33 912.667M6953 912L6953 913L6956 913L6953 912M7022 912L7022 913L7025 913L7022 912M7175.33 912.667L7175.67 913.333L7175.33 912.667M5092 913L5093 914L5092 913M5429 913L5430 914L5429 913M6163 913L6163 917L6164 917L6163 913M6811 913L6812 914L6811 913M6959 913L6959 914L6963 914L6959 913M7014 913L7014 914L7018 914L7014 913M5428 914L5429 915L5428 914M6418 914L6419 915L6418 914M6542 914L6543 915L6542 914M6968 914L6968 915L6973 915L6968 914M7004 914L7004 915L7009 915L7004 914M7058.33 914.667L7058.67 915.333L7058.33 914.667M6983 915L6983 916L6993 916L6983 915M5043 916L5043 925L5044 925L5043 916M5094 916L5095 917L5094 916M5427 916L5428 917L5427 916M6419 916L6420 917L6419 916M6543 916L6544 917L6543 916M6810 916L6811 917L6810 916M6921 916L6922 917L6921 916M7176 916L7177 917L7176 916M5426 917L5427 918L5426 917M6420 918L6421 919L6420 918M6544 918L6545 919L6544 918M7059.33 918.667L7059.67 919.333L7059.33 918.667M5096 919L5097 920L5096 919M5425 919L5426 920L5425 919M6809 919L6810 920L6809 919M6920.33 919.667L6920.67 920.333L6920.33 919.667M7177.33 919.667L7177.67 920.333L7177.33 919.667M5424 920L5425 921L5424 920M5598 920L5598 990L5599 990L5599 942L5598 920M6545 920L6546 921L6545 920M6164 921L6164 927L6165 927L6164 921M6421 921L6422 922L6421 921M5098 922L5099 923L5098 922M5423 922L5424 923L5423 922M6546 922L6547 923L6546 922M6808.33 922.667L6808.67 923.333L6808.33 922.667M7060.33 922.667L7060.67 923.333L7060.33 922.667M7178.33 922.667L7178.67 923.333L7178.33 922.667M5099 923L5100 924L5099 923M5422 923L5423 924L5422 923M6422 923L6423 924L6422 923M6919.33 923.667L6919.67 924.333L6919.33 923.667M6547 924L6548 925L6547 924M5100 925L5101 926L5100 925M6423 925L6424 926L6423 925M6807.33 925.667L6807.67 926.333L6807.33 925.667M7179.33 925.667L7179.67 926.333L7179.33 925.667M5101 926L5102 927L5101 926M5420 926L5421 927L5420 926M6548 926L6549 927L6548 926M6918.33 926.667L6918.67 927.333L6918.33 926.667M7061 926L7062 927L7061 926M5419 927L5420 928L5419 927M6424 928L6425 929L6424 928M6549 928L6550 929L6549 928M6806.33 928.667L6806.67 929.333L6806.33 928.667M5103 929L5104 930L5103 929M7062.33 929.667L7062.67 930.333L7062.33 929.667M7180.33 929.667L7180.67 930.333L7180.33 929.667M5104 930L5105 931L5104 930M5417 930L5418 931L5417 930M6425 930L6426 931L6425 930M6550 930L6551 931L6550 930M6917.33 930.667L6917.67 931.333L6917.33 930.667M5105 931L5106 932L5105 931M5416 931L5417 932L5416 931M6805.33 931.667L6805.67 932.333L6805.33 931.667M6426 932L6427 933L6426 932M6551 932L6552 933L6551 932M7181.33 932.667L7181.67 933.333L7181.33 932.667M7063.33 933.667L7063.67 934.333L7063.33 933.667M5107 934L5108 935L5107 934M6552 934L6553 935L6552 934M6916.33 934.667L6916.67 935.333L6916.33 934.667M5108 935L5109 936L5108 935M5413 935L5414 936L5413 935M6165 935L6165 948L6166 948L6165 935M6339 935L6339 993L6340 993L6340 954L6339 935M6427 935L6428 936L6427 935M6804 935L6805 936L6804 935M7182.33 935.667L7182.67 936.333L7182.33 935.667M5109 936L5110 937L5109 936M5412 936L5413 937L5412 936M6553 936L6554 937L6553 936M5110 937L5111 938L5110 937M5411 937L5412 938L5411 937M6428 937L6429 938L6428 937M6915.33 937.667L6915.67 938.333L6915.33 937.667M7064.33 937.667L7064.67 938.333L7064.33 937.667M5111 938L5112 939L5111 938M5410 938L5411 939L5410 938M6554 938L6555 939L6554 938M6803 938L6804 939L6803 938M5409 939L5410 940L5409 939M6429 939L6430 940L6429 939M7183 939L7184 940L7183 939M6555 940L6556 941L6555 940M7065.33 940.667L7065.67 941.333L7065.33 940.667M6430.33 941.667L6430.67 942.333L6430.33 941.667M6802.33 941.667L6802.67 942.333L6802.33 941.667M6914.33 941.667L6914.67 942.333L6914.33 941.667M6556 942L6557 943L6556 942M7184.33 942.667L7184.67 943.333L7184.33 942.667M5115 943L5116 944L5115 943M5116 944L5117 945L5116 944M6431 944L6432 945L6431 944M6557 944L6558 945L6557 944M6801.33 944.667L6801.67 945.333L6801.33 944.667M7066.33 944.667L7066.67 945.333L7066.33 944.667M5117 945L5118 946L5117 945M5404 945L5405 946L5404 945M6913.33 945.667L6913.67 946.333L6913.33 945.667M7185.33 945.667L7185.67 946.333L7185.33 945.667M5118 946L5119 947L5118 946M5403 946L5404 947L5403 946M6432 946L6433 947L6432 946M6558 946L6559 947L6558 946M5119 947L5120 948L5119 947M6800.33 947.667L6800.67 948.333L6800.33 947.667M6433.33 948.667L6433.67 949.333L6433.33 948.667M6559 948L6560 949L6559 948M6912.33 948.667L6912.67 949.333L6912.33 948.667M7067.33 948.667L7067.67 949.333L7067.33 948.667M7186.33 948.667L7186.67 949.333L7186.33 948.667M5043 949L5043 957L5044 957L5043 949M6560 950L6561 951L6560 950M6799.33 950.667L6799.67 951.333L6799.33 950.667M5397 951L5398 952L5397 951M6434 951L6435 952L6434 951M5125 952L5126 953L5125 952M5396 952L5397 953L5396 952M6561 952L6562 953L6561 952M6911.33 952.667L6911.67 953.333L6911.33 952.667M7068 952L7069 953L7068 952M7187.33 952.667L7187.67 953.333L7187.33 952.667M5126 953L5127 954L5126 953M5395 953L5396 954L5395 953M6435 953L6436 954L6435 953M5127 954L5128 955L5127 954M5394 954L5395 955L5394 954M6562 954L6563 955L6562 954M6798 954L6799 955L6798 954M5128 955L5129 956L5128 955M5393 955L5394 956L5393 955M6436.33 955.667L6436.67 956.333L6436.33 955.667M7069.33 955.667L7069.67 956.333L7069.33 955.667M7188.33 955.667L7188.67 956.333L7188.33 955.667M6563 956L6564 957L6563 956M6910.33 956.667L6910.67 957.333L6910.33 956.667M5390 957L5391 958L5390 957M6164 957L6164 963L6165 963L6164 957M6797 957L6798 958L6797 957M5132 958L5133 959L5132 958M5389 958L5390 959L5389 958M6437 958L6438 959L6437 958M6564 958L6565 959L6564 958M7189.33 958.667L7189.67 959.333L7189.33 958.667M5133 959L5134 960L5133 959M5388 959L5389 960L5388 959M6909.33 959.667L6909.67 960.333L6909.33 959.667M7070.33 959.667L7070.67 960.333L7070.33 959.667M6438 960L6439 961L6438 960M6565 960L6566 961L6565 960M6796 960L6797 961L6796 960M5136 961L5137 962L5136 961M5385 961L5386 962L5385 961M5137 962L5138 963L5137 962M5384 962L5385 963L5384 962M6439.33 962.667L6439.67 963.333L6439.33 962.667M6566 962L6567 963L6566 962M7190 962L7191 963L7190 962M5042 963L5042 968L5043 968L5042 963M6795.33 963.667L6795.67 964.333L6795.33 963.667M6908.33 963.667L6908.67 964.333L6908.33 963.667M7071.33 963.667L7071.67 964.333L7071.33 963.667M5140 964L5141 965L5140 964M5381 964L5382 965L5381 964M6567 964L6568 965L6567 964M5141 965L5142 966L5141 965M5380 965L5381 966L5380 965M6440 965L6441 966L6440 965M7191.33 965.667L7191.67 966.333L7191.33 965.667M5143 966L5144 967L5143 966M5378 966L5379 967L5378 966M6568 966L6569 967L6568 966M6794.33 966.667L6794.67 967.333L6794.33 966.667M7072.33 966.667L7072.67 967.333L7072.33 966.667M5377 967L5378 968L5377 967M6441 967L6442 968L6441 967M6907 967L6908 968L6907 967M5146 968L5147 969L5146 968M5375 968L5376 969L5375 968M6163 968L6163 971L6164 971L6163 968M6569 968L6570 969L6569 968M7192.33 968.667L7192.67 969.333L7192.33 968.667M5374 969L5375 970L5374 969M6442.33 969.667L6442.67 970.333L6442.33 969.667M6793.33 969.667L6793.67 970.333L6793.33 969.667M5149 970L5150 971L5149 970M5372 970L5373 971L5372 970M6570 970L6571 971L6570 970M6906.33 970.667L6906.67 971.333L6906.33 970.667M7073.33 970.667L7073.67 971.333L7073.33 970.667M5041 971L5041 975L5042 975L5041 971M5151 971L5152 972L5151 971M5370 971L5371 972L5370 971M7193.33 971.667L7193.67 972.333L7193.33 971.667M5153 972L5154 973L5153 972M5369 972L5370 973L5369 972M6443 972L6444 973L6443 972M6571 972L6572 973L6571 972M6792.33 972.667L6792.67 973.333L6792.33 972.667M5154 973L5155 974L5154 973M5367 973L5368 974L5367 973M5156 974L5157 975L5156 974M5365 974L5366 975L5365 974M6444 974L6445 975L6444 974M6572 974L6573 975L6572 974M6905.33 974.667L6905.67 975.333L6905.33 974.667M7074.33 974.667L7074.67 975.333L7074.33 974.667M5158 975L5159 976L5158 975M5363 975L5364 976L5363 975M6162 975L6162 978L6163 978L6162 975M7194.33 975.667L7194.67 976.333L7194.33 975.667M5160 976L5161 977L5160 976M5362 976L5363 977L5362 976M6223 976L6223 992L6224 992L6223 976M6445.33 976.667L6445.67 977.333L6445.33 976.667M6573 976L6574 977L6573 976M6791 976L6792 977L6791 976M5162 977L5163 978L5162 977M5360 977L5361 978L5360 977M5040 978L5040 981L5041 981L5040 978M5164 978L5165 979L5164 978M5358 978L5359 979L5358 978M6574 978L6575 979L6574 978M6904 978L6905 979L6904 978M7075 978L7076 979L7075 978M7195.33 978.667L7195.67 979.333L7195.33 978.667M5166 979L5167 980L5166 979M5356 979L5357 980L5356 979M6446 979L6447 980L6446 979M6790 979L6791 980L6790 979M5168 980L5169 981L5168 980M5353.67 980.333L5354.33 980.667L5353.67 980.333M6575 980L6576 981L6575 980M5170 981L5171 982L5170 981M5351 981L5352 982L5351 981M6161 981L6161 984L6162 984L6161 981M6447 981L6448 982L6447 981M6903.33 981.667L6903.67 982.333L6903.33 981.667M7076.33 981.667L7076.67 982.333L7076.33 981.667M7196.33 981.667L7196.67 982.333L7196.33 981.667M5172.67 982.333L5173.33 982.667L5172.67 982.333M5349 982L5350 983L5349 982M6576 982L6577 983L6576 982M6789 982L6790 983L6789 982M5175 983L5176 984L5175 983M5347 983L5348 984L5347 983M6448.33 983.667L6448.67 984.333L6448.33 983.667M5039.33 984.667L5039.67 985.333L5039.33 984.667M5177 984L5178 985L5177 984M5344 984L5345 985L5344 984M6577 984L6578 985L6577 984M7197.33 984.667L7197.67 985.333L7197.33 984.667M5180 985L5181 986L5180 985M5341.67 985.333L5342.33 985.667L5341.67 985.333M6788.33 985.667L6788.67 986.333L6788.33 985.667M6902.33 985.667L6902.67 986.333L6902.33 985.667M7077.33 985.667L7077.67 986.333L7077.33 985.667M5183 986L5184 987L5183 986M5339 986L5340 987L5339 986M6449 986L6450 987L6449 986M6578 986L6579 987L6578 986M5185.67 987.333L5186.33 987.667L5185.67 987.333M5336 987L5337 988L5336 987M6160.33 987.667L6160.67 988.333L6160.33 987.667M5188.67 988.333L5189.33 988.667L5188.67 988.333M5333 988L5334 989L5333 988M6450 988L6451 989L6450 988M6579 988L6580 989L6579 988M6787.33 988.667L6787.67 989.333L6787.33 988.667M7198.33 988.667L7198.67 989.333L7198.33 988.667M4857 989L4857 990L4988 990C4977.73 985.693 4960.16 989 4949 989L4857 989M5038 989L5039 990L5038 989M5192 989L5193 990L5192 989M5329.67 989.333L5330.33 989.667L5329.67 989.333M6901 989L6902 990L6901 989M7078.33 989.667L7078.67 990.333L7078.33 989.667M5195.67 990.333L5196.33 990.667L5195.67 990.333M5326 990L5327 991L5326 990M5600.67 990.333L5601.33 990.667L5600.67 990.333M5713.67 990.333L5714.33 990.667L5713.67 990.333M6451.33 990.667L6451.67 991.333L6451.33 990.667M6580 990L6581 991L6580 990M5199.67 991.333L5200.33 991.667L5199.67 991.333M5322.67 991.333L5323.33 991.667L5322.67 991.333M5606 991L5606 992L5609 992L5606 991M5707 991L5707 992L5710 992L5707 991M6786.33 991.667L6786.67 992.333L6786.33 991.667M7199.33 991.667L7199.67 992.333L7199.33 991.667M5203.67 992.333L5204.33 992.667L5203.67 992.333M5318.67 992.333L5319.33 992.667L5318.67 992.333M5612 992L5612 993L5615 993L5612 992M5700 992L5700 993L5704 993L5700 992M6159.33 992.667L6159.67 993.333L6159.33 992.667M6224 992L6225 993L6224 992M6581.33 992.667L6581.67 993.333L6581.33 992.667M6900.33 992.667L6900.67 993.333L6900.33 992.667M7079.33 992.667L7079.67 993.333L7079.33 992.667M5207 993L5207 994L5210 994L5207 993M5313.67 993.333L5314.33 993.667L5313.67 993.333M5619 993L5619 994L5623 994L5619 993M5693 993L5693 994L5697 994L5693 993M5909 993L5909 994L6041 994C6030.5 989.593 6012.42 993 6001 993L5909 993M6228 993L6228 994L6232 994L6228 993M6334 993L6334 994L6337 994L6334 993M6453.67 993.333L6454.33 993.667L6453.67 993.333M5212 994L5212 995L5215 995L5212 994M5308 994L5308 995L5311 995L5308 994M5627 994L5627 995L5632 995L5627 994M5684 994L5684 995L5688 995L5684 994M6235 994L6235 995L6238 995L6235 994M6327 994L6327 995L6331 995L6327 994M6457 994L6457 995L6460 995L6457 994M6576 994L6576 995L6579 995L6576 994M6629 994L6629 995L6632 995L6629 994M6742.67 994.333L6743.33 994.667L6742.67 994.333M6788 994L6788 995L6791 995L6788 994M7200.33 994.667L7200.67 995.333L7200.33 994.667M5218 995L5218 996L5221 996L5218 995M5302 995L5302 996L5305 996L5302 995M5638 995L5638 996L5644 996L5638 995M5672 995L5672 996L5678 996L5672 995M6241 995L6241 996L6245 996L6241 995M6320 995L6320 996L6324 996L6320 995M6464 995L6464 996L6467 996L6464 995M6568 995L6568 996L6572 996L6568 995M6635 995L6635 996L6638 996L6635 995M6735 995L6735 996L6739 996L6735 995M6794 995L6794 996L6797 996L6794 995M6899 995L6900 996L6899 995M5225 996L5225 997L5229 997L5225 996M5294 996L5294 997L5299 997L5294 996M6249 996L6249 997L6253 997L6249 996M6312 996L6312 997L6316 997L6312 996M6472 996L6472 997L6476 997L6472 996M6558 996L6558 997L6563 997L6558 996M6641 996L6641 997L6645 997L6641 996M6729 996L6729 997L6732 997L6729 996M6800 996L6800 997L6803 997L6800 996M6893 996L6893 997L6896 997L6893 996M7080 996L7080 997L7083 997L7080 996M7197 996L7197 997L7200 997L7197 996M5233 997L5233 998L5239 998L5233 997M5284 997L5284 998L5290 998L5284 997M6258 997L6258 998L6264 998L6258 997M6302 997L6302 998L6307 998L6302 997M6481 997L6481 998L6488 998L6481 997M6546 997L6546 998L6553 998L6546 997M6649 997L6649 998L6653 998L6649 997M6721 997L6721 998L6725 998L6721 997M6807 997L6807 998L6811 998L6807 997M6886 997L6886 998L6890 998L6886 997M7086 997L7086 998L7089 998L7086 997M7189 997L7189 998L7193 998L7189 997M5246 998L5246 999L5277 999L5246 998M6271 998L6271 999L6295 999L6271 998M6496 998L6496 999L6509 999L6496 998M6522 998L6522 999L6537 999L6522 998M6657 998L6657 999L6662 999L6657 998M6712 998L6712 999L6717 999L6712 998M6814 998L6814 999L6818 999L6814 998M6879 998L6879 999L6883 999L6879 998M7092 998L7092 999L7095 999L7092 998M7182 998L7182 999L7186 999L7182 998M6668 999L6668 1000L6674 1000L6668 999M6699 999L6699 1000L6706 1000L6699 999M6823 999L6823 1000L6828 1000L6823 999M6870 999L6870 1000L6875 1000L6870 999M7099 999L7099 1000L7103 1000L7099 999M7172 999L7172 1000L7177 1000L7172 999M6835 1000L6835 1001L6848 1001L6835 1000M6850 1000L6850 1001L6863 1001L6850 1000M7107 1000L7107 1001L7112 1001L7107 1000M7161 1000L7161 1001L7168 1001L7161 1000M7119 1001L7119 1002L7130 1002L7119 1001M7142 1001L7142 1002L7154 1002L7142 1001z"/>
<path style="fill:#031c4c; stroke:none;" d="M267 1982C276.704 1977.27 285.307 1964.66 293 1957C307.926 1942.15 324.327 1928.5 341 1915.65C395.009 1874.04 456.627 1841.41 522 1821.72C571.177 1806.91 622.694 1798.27 674 1797.01C689.427 1796.64 705.69 1796.48 721 1798.29C725.684 1798.84 738.424 1801.8 742.298 1798.97C748.014 1794.78 749.975 1778.55 752.424 1772C761.251 1748.39 770.024 1724.61 781.248 1702C816.888 1630.21 859.216 1562.68 913.17 1503C1068.44 1331.25 1286.1 1231.83 1516 1216.09C1566.14 1212.66 1617 1214.17 1667 1219.17C1691.41 1221.61 1716.57 1228.5 1741 1229C1732.96 1222.34 1720.57 1218.85 1711 1214.72C1686.74 1204.26 1662.06 1194.69 1637 1186.33C1536.4 1152.8 1433.6 1137.57 1328 1134.99C911.38 1124.79 520.868 1393.14 345.219 1765C312.831 1833.57 282.391 1907.43 267 1982M4627 2147L4589.88 2271L4565 2400C4606.83 2419.56 4654.31 2432.2 4699 2443.37C4734.11 2452.15 4769.11 2457.99 4805 2462.29C4835.3 2465.91 4865.53 2466.27 4896 2467.01C5046.43 2470.7 5212.92 2432.48 5305.14 2303C5320.04 2282.08 5332.44 2259 5341.58 2235C5356.36 2196.13 5363.26 2156.29 5366.09 2115C5369.41 2066.56 5364.92 2016.78 5351.57 1970C5313.14 1835.34 5179.05 1776.61 5060 1729C5010.93 1709.37 4948.54 1693.27 4911.04 1654C4872.56 1613.7 4888.28 1541.58 4936 1516.78C4987.18 1490.19 5054.09 1496.91 5109 1505.42C5146.43 1511.23 5181.74 1525.12 5217 1538.42C5231.69 1543.96 5247.58 1553.34 5263 1556C5284.97 1503.15 5303.98 1450.98 5316.65 1395C5321.96 1371.54 5328.98 1346.16 5329 1322C5311.35 1317.92 5294.3 1310.4 5277 1305.03C5246.94 1295.69 5216.63 1287.15 5186 1279.88C5135.51 1267.92 5085.32 1264.05 5034 1259.17C5013.02 1257.17 4990.96 1259.04 4970 1259.96C4881.03 1263.85 4789.32 1287.07 4719 1344.26C4631.11 1415.75 4592.31 1530.08 4599.91 1641C4603.72 1696.6 4614.86 1748.7 4644.2 1797C4699.17 1887.49 4795.44 1928.61 4890 1964.58C4940.06 1983.62 5005.16 1998.24 5040.71 2041C5070.12 2076.36 5068.57 2137.36 5036.91 2171C5020.38 2188.56 4995.94 2197.89 4973 2203.62C4893.37 2223.54 4807.09 2210.29 4730 2185.66C4695.25 2174.55 4661.85 2156.96 4627 2147M2619 1277L2617 2444L3279 2445C3291.38 2381.16 3294.28 2317.69 3289.09 2253C3287.82 2237.21 3285.21 2221.61 3282.59 2206C3281.91 2201.95 3281.93 2192.71 3278.41 2190.03C3273.42 2186.22 3258.16 2189 3252 2189L3180 2189C3088.28 2189 2996.72 2188 2905 2188L2907 1278C2851.26 1267.61 2790.69 1261.21 2734 1265.09C2695.92 1267.7 2657.04 1276.22 2619 1277z"/>
<path style="fill:#d02426; stroke:none;" d="M1417 1396.42C1383.99 1400.76 1353.16 1405.73 1322 1418.45C1253.57 1446.4 1196.34 1504.71 1168.45 1573C1111.97 1711.31 1170.01 1875.75 1305 1943.25C1329.98 1955.74 1356.42 1964.79 1384 1969.41C1409.91 1973.76 1436.82 1975.93 1463 1972.71C1597.28 1956.22 1707.77 1850.71 1720.83 1714C1734.32 1572.83 1641.92 1439.55 1504 1404.63C1476.71 1397.71 1445.18 1392.72 1417 1396.42z"/>
<path style="fill:#031c4c; stroke:none;" d="M1747 1503C1751.26 1521.6 1765.26 1539.77 1771.95 1558C1788.74 1603.77 1798.26 1654.1 1794.91 1703C1792.43 1739.23 1785.44 1774.83 1772.95 1809C1766.43 1826.82 1752.28 1845.61 1749 1864C1804.37 1898.17 1853.26 1949.57 1893.6 2000C2047.55 2192.44 2090.98 2449.76 2025.58 2685C2007.75 2749.13 1980.96 2811.47 1947.58 2869C1937.31 2886.68 1926.58 2904.16 1914.97 2921C1908.14 2930.91 1898.67 2940.9 1894 2952C1902.79 2947.9 1910.05 2938.69 1917 2932.04C1932.6 2917.12 1947.47 2901.9 1962.09 2886C2025.43 2817.12 2076.26 2735.79 2113.28 2650C2248.91 2335.68 2185.95 1963.95 1970.42 1701C1924.55 1645.03 1872.07 1595.04 1815 1550.58C1799.7 1538.66 1784.07 1527.18 1768 1516.33C1761.23 1511.76 1754.69 1505.91 1747 1503M3420 1636C3420 1690.85 3425.56 1744.63 3448.69 1795C3453.8 1806.13 3459.28 1817.05 3464.75 1828C3466.44 1831.38 3468.39 1838.14 3472.21 1839.65C3477.49 1841.72 3488.77 1835.29 3494 1833.72C3513.53 1827.84 3533.12 1822.45 3553 1817.88C3617.27 1803.11 3693.19 1794.14 3757 1815.33C3795.35 1828.07 3828.88 1857.84 3829 1901C3706.17 1901 3573.42 1893.68 3467 1967.03C3435.19 1988.95 3406.21 2019.2 3388.81 2054C3367.98 2095.66 3361.76 2143.98 3364.91 2190C3370.62 2273.37 3399.42 2351.24 3472 2399.65C3530.66 2438.77 3600.88 2453.48 3670 2460.17C3751.29 2468.04 3834.55 2464.09 3915 2449.58C3971.08 2439.46 4025.57 2423.71 4081 2411L4081 2057C4081 1924.1 4095.07 1769.82 3986 1671.17C3967.95 1654.85 3947.65 1640.43 3926 1629.26C3893.88 1612.68 3859.35 1602.07 3824 1595C3780.82 1586.36 3734.03 1582.07 3690 1585.09C3634.43 1588.9 3579.53 1595.31 3525 1607.42C3489.53 1615.3 3455.28 1627.84 3420 1636M7042 2194C7031.4 2195.59 7021.1 2201.16 7011 2204.66C6993.93 2210.56 6976.46 2215.52 6959 2220.12C6940.9 2224.88 6922.49 2228.56 6904 2231.42C6817.32 2244.87 6707.88 2248.6 6658.42 2161C6651.02 2147.88 6645.36 2132.68 6642 2118L7134 2119C7135.56 2082.62 7143.36 2046.48 7144.96 2010C7149.3 1910.97 7129.42 1807.22 7069.84 1726C6933.12 1539.59 6622.08 1550.35 6473.17 1715C6369.66 1829.45 6346.07 2008.14 6376 2155C6385.07 2199.48 6398.65 2243.19 6420.86 2283C6434.46 2307.37 6451.06 2330.57 6470.09 2351C6575.86 2464.56 6746.32 2481.76 6892 2466.17C6945.12 2460.48 6996.67 2449.57 7048 2434.86C7060.46 2431.29 7072.71 2427.1 7085 2423C7088.74 2421.75 7096.5 2420.48 7098.4 2416.58C7100.81 2411.64 7098.67 2403.22 7098.17 2398C7096.93 2384.97 7096.35 2372 7094.42 2359C7085.71 2300.14 7064.66 2248.42 7042 2194M7278 1614L7276 2451C7303.42 2453.17 7330.44 2460.02 7358 2461.91C7421.6 2466.27 7485.25 2462.82 7548 2451L7549 1812C7585.78 1807.35 7628.15 1804.52 7661 1825.06C7717.61 1860.48 7705.66 1949.38 7669.99 1995C7652.09 2017.88 7628.72 2034.78 7604 2049.6C7598.92 2052.65 7578.73 2060.47 7578.96 2067.04C7579.21 2074.31 7586.66 2084.39 7589.69 2091C7598.9 2111.06 7608.48 2130.94 7617.69 2151C7649.61 2220.52 7682.77 2289.48 7714.69 2359C7724.66 2380.7 7735.14 2402.19 7744.86 2424C7747.84 2430.69 7751.98 2445.68 7758.39 2449.57C7764.15 2453.07 7773.46 2453.18 7780 2454.25C7798.24 2457.23 7816.6 2458.83 7835 2460.09C7886.08 2463.59 7936.93 2463.61 7988 2460.09C8012.36 2458.41 8040.72 2457.88 8064 2450C8061.34 2440.77 8055.63 2432.48 8051.26 2424C8041.62 2405.33 8031.7 2386.76 8022.25 2368C7988.49 2300.96 7953.17 2234.69 7918.74 2168C7906.63 2144.54 7888.3 2119.35 7881 2094C7890.31 2089.67 7898.47 2080.01 7906 2073.09C7931.03 2050.07 7949 2021.49 7961.6 1990C8007.32 1875.72 7981.97 1732.47 7877 1660.03C7833.96 1630.32 7783.89 1614.01 7733 1604C7636.24 1584.96 7535.6 1591.19 7438 1597.91C7385.15 1601.55 7330.18 1604.31 7278 1614M5951 1608L5950 2225C5899.69 2227.16 5845.39 2238.31 5802 2204.33C5763.7 2174.34 5760.96 2123.57 5757.91 2079C5754.47 2028.75 5756.75 1977.29 5757.99 1927C5759.4 1869.08 5758 1810.94 5758 1753L5758 1647L5758 1619C5758 1616.11 5758.9 1611.17 5756.97 1608.74C5754.14 1605.17 5744.25 1604.84 5740 1604C5723.77 1600.81 5707.44 1598.48 5691 1596.83C5625.45 1590.28 5552.23 1588.83 5488.02 1606.44C5479.64 1608.74 5483 1625.07 5483 1632L5483 1712L5483 2053C5483 2163.49 5488.84 2279.39 5567.17 2366C5618.64 2422.9 5692.13 2447.63 5766 2458.27C5872.41 2473.6 5981.83 2470.52 6087 2447.42C6119.15 2440.36 6151.33 2433.45 6183 2424.42C6195.39 2420.89 6210.51 2418.42 6221.85 2412.2C6227.34 2409.19 6225 2397.34 6225 2392L6225 2333L6225 2084C6225 1964.98 6226 1846.06 6226 1727L6226 1639C6226 1632.93 6229.17 1613.11 6224.4 1608.99C6220.13 1605.3 6209.43 1605 6204 1604.08C6186.46 1601.1 6168.79 1597.83 6151 1596.96C6110.9 1595.01 6071.16 1592.35 6031 1596.17C6004.03 1598.74 5977.78 1604.54 5951 1608M9581 2198C9558.04 2204.27 9536.02 2214.17 9513 2220.58C9496.46 2225.17 9479.83 2229.03 9463 2232.4C9372.89 2250.42 9250.53 2258.18 9198 2166C9190.41 2152.69 9184.46 2136.93 9181 2122L9673 2123C9685.52 2024 9693.04 1924.18 9659.66 1828C9642.54 1778.7 9615.54 1730.69 9578 1694.01C9438.09 1557.31 9186.43 1563.36 9042 1690.29C8905.37 1810.35 8878.65 2024.73 8922.88 2193C8932.97 2231.36 8948.05 2268.18 8968.81 2302C9067.37 2462.57 9271.3 2490.38 9443 2469.28C9492.59 2463.19 9541.12 2453.08 9589 2438.72C9600.79 2435.18 9612.33 2431.22 9624 2427.33C9627.78 2426.07 9634.62 2425.12 9636.97 2421.58C9639.28 2418.11 9638.08 2411 9637.99 2407C9637.66 2393.66 9635.74 2380.25 9634.16 2367C9626.93 2306.71 9604.04 2253.35 9581 2198M8080 1842L8320 1843C8320 1996.01 8319 2149.07 8319 2302L8319 2414L8319 2442C8319 2444.86 8318.1 2449.91 8320.6 2451.99C8324.31 2455.06 8333.37 2454.6 8338 2455.27C8353.65 2457.53 8369.31 2459.41 8385 2461.29C8428.14 2466.45 8471.76 2466.96 8515 2462.83C8541.37 2460.31 8567.62 2455.08 8594 2453L8595 1843L8835 1844C8837.9 1821.52 8843.67 1799.68 8845.83 1777C8851.09 1721.69 8846.19 1667.24 8835 1613C8648.68 1613 8462.23 1612 8276 1612L8133 1612L8096 1612C8092.25 1612 8084.85 1610.6 8081.73 1613.03C8078.44 1615.59 8078.2 1623.21 8077.35 1627C8074.3 1640.53 8072.4 1654.26 8070.72 1668C8065.67 1709.1 8066.17 1752.93 8071.28 1794C8073.3 1810.17 8077.84 1825.92 8080 1842z"/>
<path style="fill:#ffffff; stroke:none;" d="M6639 1930L6896 1930C6896 1911 6891.39 1891.62 6884.4 1874C6877.74 1857.22 6867.9 1840.76 6855 1828.01C6810.9 1784.48 6729.23 1789.53 6684 1828.3C6655.97 1852.33 6639.1 1893.12 6639 1930M9178 1934L9436 1935C9432.56 1891.38 9416.54 1844.47 9378 1819.7C9330 1788.84 9257.29 1798.94 9217.04 1838.09C9192.94 1861.53 9178.69 1900.62 9178 1934z"/>
<path style="fill:#d02426; stroke:none;" d="M686 1870.59C561.142 1875.11 433.019 1921.01 342 2008.04C287.355 2060.29 247.048 2127.29 223.67 2199C160.651 2392.31 218.959 2624.17 378 2754.54C430 2797.16 490.35 2827.45 555 2845.42C595.81 2856.77 643.446 2866.98 686 2864.79C866.864 2855.5 1042.42 2767.07 1123.74 2599C1230.04 2379.3 1162.92 2089.85 957 1952.52C912.338 1922.73 862.057 1900.64 810 1887.63C770.376 1877.72 727.03 1869.11 686 1870.59z"/>
<path style="fill:#ffffff; stroke:none;" d="M3829 2252L3829 2074C3768.41 2074 3695.67 2063.2 3642 2097.7C3587.46 2132.76 3591.88 2212.64 3649 2242.68C3704.39 2271.81 3770.35 2259.57 3829 2252z"/>
<path style="fill:#d02426; stroke:none;" d="M1680 2265.42C1661.93 2267.8 1644.64 2269.03 1627 2274.44C1585.67 2287.1 1548.31 2315.08 1524.35 2351C1470.12 2432.33 1483.83 2545.18 1558 2609.71C1581.87 2630.47 1609.81 2643.35 1640 2651.71C1662.24 2657.86 1687.2 2658.62 1710 2655.71C1802.22 2643.94 1876.86 2565.66 1880.96 2472C1884.9 2381.94 1827.4 2298.08 1740 2273C1721.67 2267.74 1699.09 2262.92 1680 2265.42z"/>
<path style="fill:#031c4c; stroke:none;" d="M1524 2660C1491.25 2729.11 1452.32 2792.74 1399.91 2849C1256.55 3002.91 1039.09 3088.82 829 3068.83C763.353 3062.58 698.069 3049.7 636 3026.95C600.434 3013.91 567.754 2995.47 533 2981C536.53 2987.55 545.043 2991.88 551 2996.14C565.629 3006.61 580.666 3016.42 596 3025.81C659.939 3064.98 728.859 3093.37 801 3113.42C1067 3187.36 1359.78 3104.52 1560 2918.09C1605.99 2875.26 1647.42 2827.34 1682.33 2775C1693.53 2758.21 1712.46 2736.85 1717 2717C1668.11 2719.1 1625.3 2715.49 1580 2694.69C1567.49 2688.95 1555.19 2681.57 1544 2673.57C1537.64 2669.03 1531.46 2662.51 1524 2660z"/>
<path style="fill:#d02426; stroke:none;" d="M6179 2698C6179 2802.59 6178 2907.33 6178 3012L6178 3092C6178 3098.51 6174.88 3116.13 6179.03 3121.26C6181.06 3123.77 6187.04 3123.49 6190 3123.84C6199.67 3125 6209.32 3126.13 6219 3127.17C6260.13 3131.57 6301.83 3133.08 6343 3128.16C6396.65 3121.74 6451.66 3101.66 6485.1 3057C6511.97 3021.12 6521.12 2975.84 6523.04 2932C6526.42 2854.78 6509.94 2768.8 6439 2724.81C6420.69 2713.46 6400.81 2705.35 6380 2699.88C6330.69 2686.94 6279.24 2689.65 6229 2693.09C6212.39 2694.23 6195.62 2697.66 6179 2698M6743 2691.42C6696.9 2697.48 6657.09 2708.56 6624.09 2744C6564.56 2807.93 6560.96 2917.73 6581.13 2998C6589.3 3030.56 6605.2 3063.7 6630 3086.91C6673.71 3127.82 6735.47 3137.47 6793 3129.72C6809.2 3127.54 6824.99 3123 6840 3116.57C6910.36 3086.46 6937.24 3009.74 6942.09 2939C6948.16 2850.52 6926.61 2745.47 6837 2705.86C6821.14 2698.85 6804.16 2694.9 6787 2692.84C6772.74 2691.14 6757.33 2689.54 6743 2691.42M8521 3114C8517.23 3084.3 8509.14 3051.55 8495 3025C8450.63 3035.27 8405.45 3051.98 8362 3027.13C8316.24 3000.95 8310.11 2939.27 8314.83 2892C8316.32 2877.08 8318.69 2862.05 8324.2 2848C8330.88 2830.99 8341.22 2815.73 8356 2804.76C8398.03 2773.55 8446.07 2792.61 8491 2803C8499.82 2781.78 8509.22 2760.84 8513.08 2738C8513.96 2732.78 8517.75 2720.24 8514.88 2715.51C8512.62 2711.78 8503.9 2710.3 8500 2709C8485.24 2704.07 8470.42 2699.86 8455 2697.58C8390.31 2688 8318.9 2695.62 8269 2742.09C8215.53 2791.88 8199.88 2864.76 8202.96 2935C8205.75 2998.61 8230.68 3063.74 8285 3100.66C8354.49 3147.88 8445.45 3139.56 8521 3114M7014 2700C7014 2841.39 6997 2982.61 6997 3124C7030.66 3128.28 7059.36 3128.34 7093 3124L7099 2884L7100 2884C7109.12 2923.44 7128.37 2961.64 7141.33 3000C7144.73 3010.06 7148.43 3020.07 7152.19 3030C7153.42 3033.24 7154.19 3038.61 7157.42 3040.49C7163.63 3044.1 7175 3043.83 7182 3044.01C7200.29 3044.49 7217.8 3041.38 7236 3041C7247.24 2999.9 7268.56 2959.58 7284.4 2920C7289.34 2907.64 7295.93 2894.96 7299 2882L7300 2882C7300 2912.03 7302.25 2942.02 7302.99 2972C7303.73 3002.21 7302.97 3032.93 7305.83 3063C7307.06 3075.96 7307 3089.99 7307 3103C7307 3108.41 7305.42 3116.83 7307.6 3121.85C7309.9 3127.12 7322.12 3126.65 7327 3127.28C7346.92 3129.88 7367.04 3130.74 7387 3128C7391.59 3127.37 7406.18 3127.27 7408.4 3122.68C7412.04 3115.13 7407.41 3097.43 7407.04 3089C7405.78 3060.32 7405.05 3031.63 7403.09 3003C7399.29 2947.47 7398.4 2891.61 7395.96 2836C7393.98 2790.74 7390 2745.34 7390 2700L7316 2696.93L7290.65 2701.01L7283.2 2717L7267.4 2757L7225 2864L7204 2919L7203 2919L7183.42 2866L7141.58 2755L7121 2700C7084.93 2695.44 7050.06 2693.3 7014 2700M7474 3125L7520 3129.99L7579 3125C7579 3018.64 7580 2912.39 7580 2806L7580 2728C7580 2722.6 7582.84 2704.73 7578.4 2701.18C7573.94 2697.62 7562.52 2698.43 7557 2697.83C7537.76 2695.77 7518.25 2695.02 7499 2697.58C7494.08 2698.23 7478.04 2697.35 7475.6 2702.32C7471.49 2710.69 7475 2728.67 7475 2738C7475 2766.33 7474 2794.62 7474 2823L7474 3125M7649 3125C7682.12 3129.21 7711.86 3131.43 7745 3125L7745 2896L7746 2896C7754.85 2916.54 7769 2935.77 7780.4 2955C7801.54 2990.66 7822.47 3026.45 7843.8 3062C7852.76 3076.94 7861.44 3092.06 7870.4 3107C7873.59 3112.31 7876.98 3121.44 7882.33 3124.84C7887.65 3128.22 7896.87 3128.28 7903 3129.13C7924.96 3132.18 7945.27 3128.81 7967 3126L7969 2701L7937 2697.04L7873 2701L7872 2930C7859.96 2913.14 7850.48 2893.87 7839.99 2876C7817.87 2838.34 7796.06 2800.46 7773.6 2763C7764.86 2748.42 7756.51 2733.6 7747.8 2719C7744.65 2713.73 7741.31 2704.44 7735.81 2701.31C7730.9 2698.51 7723.5 2698.63 7718 2697.87C7701.94 2695.64 7686.07 2695.92 7670 2697.84C7665.6 2698.37 7652.87 2697.95 7650.6 2702.43C7646.56 2710.41 7650 2728.06 7650 2737L7650 2822C7650 2922.95 7649 3023.98 7649 3125M8039 2701L8038 3126L8084 3130.99L8143 3126C8143 3021.28 8144 2916.72 8144 2812L8144 2732C8144 2725.49 8147.12 2707.88 8142.97 2702.74C8139.35 2698.26 8124.41 2699.29 8119 2698.58C8091.71 2694.95 8066.05 2700.78 8039 2701M8540 3126C8566.35 3129.33 8592.39 3134.11 8619 3130.58C8624.87 3129.79 8637.86 3130.5 8642.27 3126.26C8646.75 3121.96 8647.34 3110.8 8649 3105C8654.6 3085.41 8659.48 3065.61 8665 3046C8699.57 3059.04 8748.55 3058 8783 3045C8784.65 3065.17 8793.57 3086.47 8798.85 3106C8800.26 3111.21 8801.1 3123.6 8805.56 3126.98C8811.36 3131.36 8825.95 3130.57 8833 3131.09C8860.43 3133.1 8886.79 3130.44 8914 3127C8905.49 3090.24 8891.61 3054.14 8880.72 3018C8860.11 2949.58 8839.03 2881.3 8818.02 2813C8809.83 2786.36 8801.4 2759.75 8793.58 2733C8791.51 2725.94 8789.23 2707.52 8783.3 2703.03C8778.46 2699.36 8765.92 2700.39 8760 2699.91C8739.04 2698.23 8717.97 2696.81 8697 2699.58C8690.97 2700.37 8676.14 2698.88 8672.28 2704.32C8664.3 2715.56 8661.46 2736.74 8657.58 2750C8648.74 2780.17 8638.35 2809.9 8629.28 2840C8609.63 2905.23 8588.2 2969.95 8567.97 3035C8558.88 3064.24 8544.09 3095.67 8540 3126M8952 2703C8952 2804.38 8951 2905.61 8951 3007L8951 3092C8951 3100.7 8947.67 3117.8 8951.6 3125.57C8953.7 3129.71 8964.92 3129.56 8969 3130.13C8987.72 3132.73 9007.22 3133.05 9026 3130.72C9030.5 3130.16 9044.18 3130.21 9046.4 3125.68C9048.7 3120.98 9047 3112.16 9047 3107L9047 3061L9047 2898L9048 2898C9054 2916.97 9069.6 2935.9 9079.8 2953C9102.02 2990.24 9124.56 3027.39 9146.15 3065C9154.63 3079.77 9163.44 3094.39 9172.2 3109C9175.41 3114.34 9178.84 3123.6 9184.21 3127.01C9189.56 3130.41 9198.83 3130.54 9205 3131.42C9226.75 3134.54 9247.6 3132.15 9269 3128C9269 3023.42 9270 2918.67 9270 2814C9270 2786.95 9271 2760.06 9271 2733C9271 2726.65 9274.01 2709.77 9269.97 2704.74C9266.39 2700.28 9250.42 2700.27 9245 2700C9221.18 2698.83 9198.64 2702.51 9175 2703L9174 2933C9141.35 2879.66 9109.99 2825.24 9078.85 2771C9070 2755.58 9060.7 2740.42 9051.85 2725C9048.4 2718.99 9044.38 2707.97 9038.61 2703.99C9033.28 2700.31 9023.25 2700.59 9017 2699.84C8995.01 2697.21 8973.75 2700.24 8952 2703M9440 2703L9408.03 2805L9333.97 3041L9307 3127C9332.67 3131.84 9357.98 3133.8 9384 3132.02C9389.9 3131.62 9407.11 3132.04 9410.58 3126.68C9413.93 3121.52 9414.85 3112.93 9416.37 3107C9419.55 3094.63 9423.19 3082.37 9426.37 3070C9427.58 3065.27 9428.83 3051.65 9433.43 3049.2C9436.28 3047.69 9441.11 3049.94 9444 3050.58C9452.84 3052.53 9461.96 3054.29 9471 3054.91C9498.49 3056.8 9523.17 3052.54 9550 3047L9572 3129C9599.37 3131.16 9624.49 3133.35 9652 3132C9657.28 3131.74 9676.82 3132.04 9679.88 3127.4C9682.8 3122.96 9675.25 3107.84 9673.86 3103C9666.92 3078.89 9658.8 3055.11 9651.86 3031C9628.86 2951.08 9604.36 2871.09 9578.67 2792C9571.89 2771.11 9566.02 2749.92 9559.34 2729C9557.23 2722.38 9556.17 2709.73 9551.16 2704.74C9546.47 2700.08 9529.44 2701.38 9523 2700.91C9494.85 2698.85 9468.01 2702.92 9440 2703z"/>
<path style="fill:#ffffff; stroke:none;" d="M6284 2785C6284 2848.33 6284.1 2911.67 6284 2975C6283.98 2990.28 6283 3005.65 6283 3021C6283 3024.78 6281.29 3034.2 6284.6 3036.82C6290.09 3041.16 6309.33 3038.3 6316 3037.42C6347.33 3033.31 6375.26 3026.27 6393.66 2998C6402.12 2984.99 6407.02 2970.12 6410 2955C6419.66 2905.91 6416.16 2835.08 6372 2802.76C6345.67 2783.49 6314.77 2784.75 6284 2785M6756 2784.46C6746.26 2785.32 6736.94 2786.66 6728 2790.89C6682.66 2812.35 6682 2878.45 6682 2921C6682 2933.96 6682.82 2947.19 6684.92 2960C6687.38 2974.99 6690.52 2990.3 6697.37 3004C6710.96 3031.17 6737.59 3042.77 6767 3039.83C6795.83 3036.95 6814.04 3013.86 6822.67 2988C6837.89 2942.34 6837.5 2880.5 6822 2835C6812.28 2806.47 6788.53 2781.61 6756 2784.46M8725 2817C8717.39 2853.89 8706.51 2890.71 8696.42 2927C8693.85 2936.28 8691.47 2945.66 8689.13 2955C8688.44 2957.72 8686.23 2962.67 8688.07 2965.27C8690.68 2968.96 8701.77 2970.01 8706 2970.71C8725.51 2973.98 8742.87 2969.58 8762 2967C8759.41 2935.23 8746.25 2902.04 8738.88 2871C8734.92 2854.26 8733.12 2832.15 8725 2817M9492 2820L9454 2967C9479.33 2976.56 9504.3 2973.3 9530 2968L9509.13 2883L9494 2820L9492 2820z"/>
</svg>
